<?xml version="1.0" standalone="no"?>
<!DOCTYPE svg PUBLIC "-//W3C//DTD SVG 20010904//EN"
 "http://www.w3.org/TR/2001/REC-SVG-20010904/DTD/svg10.dtd">
<svg version="1.0" xmlns="http://www.w3.org/2000/svg" viewBox="0 0 1023.000000 790.000000">

<g transform="translate(0.000000,790.000000) scale(0.100000,-0.100000)"
fill="#0089d0">
<path d="M5052 7726 c-277 -289 -543 -768 -718 -1292 -52 -156 -85 -275 -128
-464 -99 -433 -130 -983 -79 -1407 l6 -53 1002 0 1002 0 7 48 c17 127 28 417
22 617 -8 315 -43 571 -121 895 -8 30 -19 75 -25 100 -6 25 -15 56 -19 70 -5
14 -22 66 -36 115 -96 320 -297 759 -464 1010 -111 169 -335 445 -360 445 -5
0 -45 -38 -89 -84z"/>
<path d="M1185 6175 c-17 -205 48 -673 125 -895 5 -14 16 -52 26 -85 27 -91
136 -379 181 -475 22 -47 52 -113 68 -147 l29 -63 1164 0 1164 0 -23 38 c-119
199 -442 568 -664 761 -55 47 -102 89 -105 92 -14 17 -233 177 -336 247 -373
249 -827 455 -1209 549 -126 30 -253 53 -331 59 l-82 7 -7 -88z"/>
<path d="M8965 6253 c-148 -18 -417 -86 -595 -150 -671 -242 -1271 -654 -1729
-1187 -103 -120 -218 -272 -269 -353 l-32 -53 1161 0 1160 0 50 107 c256 544
389 1053 389 1491 l0 152 -52 -1 c-29 -1 -66 -4 -83 -6z"/>
<path d="M1809 4148 c16 -29 60 -95 97 -145 l67 -93 3162 0 3162 0 42 50 c44
52 151 216 151 232 0 4 -1510 8 -3356 8 l-3356 0 31 -52z"/>
<path d="M2296 3518 c59 -65 152 -152 202 -189 l37 -28 2589 -1 2588 0 71 47
c62 41 192 159 226 206 13 16 -126 17 -2874 17 l-2888 0 49 -52z"/>
<path d="M2971 2986 c2 -2 52 -35 110 -74 443 -297 903 -485 1348 -552 74 -11
136 -18 139 -15 18 17 6 492 -15 613 l-5 32 -791 0 c-435 0 -788 -2 -786 -4z"/>
<path d="M4654 2974 c12 -33 121 -211 197 -326 78 -116 198 -266 257 -322 l31
-29 48 53 c89 99 154 185 247 325 85 129 186 297 186 310 0 3 -219 5 -486 5
-445 0 -486 -1 -480 -16z"/>
<path d="M5725 2958 c-31 -183 -49 -618 -25 -618 24 0 221 32 290 46 326 71
641 193 955 372 94 54 332 209 340 223 4 5 -295 9 -774 9 l-780 0 -6 -32z"/>
<path d="M3800 1637 c0 -151 -3 -276 -6 -280 -4 -3 -35 9 -70 28 -109 59 -205
78 -358 72 -151 -6 -227 -25 -324 -84 -135 -82 -221 -173 -282 -298 -133 -273
-75 -596 142 -802 141 -132 293 -193 487 -193 125 0 205 18 318 70 45 21 84
35 87 32 3 -3 6 -20 6 -39 l0 -33 165 0 165 0 0 900 0 900 -165 0 -165 0 0
-273z m-309 -481 c77 -18 136 -54 197 -121 58 -64 86 -119 103 -205 31 -159
-67 -336 -228 -413 -62 -29 -77 -32 -163 -32 -86 0 -102 3 -163 32 -84 40
-163 117 -202 198 -26 53 -29 71 -30 155 0 88 3 101 33 162 87 176 271 267
453 224z"/>
<path d="M4300 1750 l0 -160 160 0 160 0 0 160 0 160 -160 0 -160 0 0 -160z"/>
<path d="M5880 1637 c0 -151 -3 -277 -7 -280 -3 -4 -25 4 -47 17 -23 13 -75
36 -116 52 -71 27 -83 28 -240 28 -153 0 -170 -2 -232 -26 -105 -40 -176 -86
-259 -168 -109 -108 -164 -213 -195 -370 -18 -96 -18 -151 1 -242 42 -197 142
-351 293 -452 128 -84 235 -116 390 -116 126 0 216 20 320 71 42 20 80 35 84
33 5 -3 8 -21 8 -40 l0 -34 155 0 155 0 0 900 0 900 -155 0 -155 0 0 -273z
m-243 -507 c123 -57 211 -172 233 -303 26 -162 -72 -334 -235 -412 -53 -26
-71 -29 -155 -29 -82 -1 -103 3 -153 26 -75 35 -166 123 -203 195 -26 53 -29
67 -29 163 0 99 2 109 33 172 95 194 319 277 509 188z"/>
<path d="M8794 1891 c-100 -61 -112 -177 -28 -258 41 -40 48 -43 100 -43 92 0
157 51 170 135 8 57 -25 130 -75 162 -44 29 -123 31 -167 4z m151 -14 c128
-72 77 -277 -69 -277 -153 0 -202 214 -66 282 47 24 87 22 135 -5z"/>
<path d="M8832 1748 c1 -51 3 -74 5 -50 3 34 8 42 24 42 10 0 19 -3 19 -7 0
-14 41 -75 46 -70 3 3 -2 19 -11 36 -15 30 -15 33 4 56 34 44 3 85 -65 85 -24
0 -24 -1 -22 -92z m85 56 c10 -26 -11 -49 -46 -52 -30 -3 -31 -2 -31 32 0 34
2 36 35 36 24 0 38 -5 42 -16z"/>
<path d="M1665 1446 c-232 -66 -395 -208 -478 -417 -15 -36 -33 -110 -42 -163
-14 -86 -14 -106 0 -190 17 -110 41 -180 90 -260 71 -118 166 -206 290 -266
110 -55 179 -70 309 -70 131 0 208 17 325 71 46 21 85 39 87 39 2 0 4 -18 4
-40 l0 -40 160 0 160 0 0 670 0 670 -160 0 -160 0 0 -50 c0 -27 -2 -50 -5 -50
-2 0 -31 14 -64 30 -121 62 -165 72 -321 76 -104 3 -159 0 -195 -10z m251
-287 c206 -38 364 -254 325 -446 -40 -203 -222 -344 -425 -331 -209 14 -377
205 -364 413 9 133 86 255 203 320 92 52 158 63 261 44z"/>
<path d="M6885 1453 c-214 -44 -392 -177 -489 -363 -63 -122 -71 -159 -70
-325 1 -134 3 -157 26 -217 53 -142 155 -271 277 -352 140 -93 245 -121 423
-114 130 5 219 29 314 84 22 13 44 24 47 24 4 0 7 -18 7 -40 l0 -40 165 0 165
0 0 670 0 670 -165 0 -165 0 0 -51 c0 -28 -3 -49 -7 -47 -5 2 -42 20 -83 40
-108 54 -174 68 -310 67 -63 -1 -124 -3 -135 -6z m276 -309 c186 -73 293 -276
244 -463 -80 -309 -447 -401 -664 -166 -115 125 -136 296 -55 446 50 91 166
178 268 199 56 12 154 5 207 -16z"/>
<path d="M8262 1440 c-145 -39 -250 -118 -304 -228 -29 -58 -33 -78 -36 -162
-3 -78 0 -105 18 -152 26 -71 97 -151 161 -183 85 -44 275 -91 439 -109 84
-10 147 -34 175 -67 52 -62 20 -144 -74 -191 -46 -24 -67 -28 -135 -28 -45 0
-97 5 -117 10 -80 22 -144 89 -155 162 l-7 38 -173 0 -173 0 6 -37 c28 -203
161 -336 395 -395 71 -18 103 -20 247 -15 137 3 177 8 231 27 211 73 305 178
330 373 20 164 -58 294 -223 373 -68 32 -141 50 -362 89 -165 29 -232 59 -255
114 -19 46 11 99 73 130 39 19 63 23 145 24 85 1 105 -2 148 -24 50 -24 77
-61 89 -121 l5 -28 164 0 164 0 -14 62 c-36 154 -138 261 -313 326 -58 22 -86
25 -221 29 -131 3 -167 0 -228 -17z"/>
<path d="M4300 780 l0 -670 160 0 160 0 0 670 0 670 -160 0 -160 0 0 -670z"/>
</g>
</svg>
