<?xml version="1.0" standalone="no"?>
<!DOCTYPE svg PUBLIC "-//W3C//DTD SVG 20010904//EN"
 "http://www.w3.org/TR/2001/REC-SVG-20010904/DTD/svg10.dtd">
<svg version="1.0" xmlns="http://www.w3.org/2000/svg"
 width="1276.000000pt" height="1280.000000pt" viewBox="0 0 1276.000000 1280.000000"
 preserveAspectRatio="xMidYMid meet">

<g transform="translate(0.000000,1280.000000) scale(0.100000,-0.100000)"
fill="#000000" stroke="none">
<path d="M6020 12549 c-1949 -122 -3702 -1135 -4776 -2759 -572 -866 -894
-1782 -1001 -2850 -24 -247 -24 -863 0 -1110 91 -905 337 -1697 768 -2468 512
-915 1287 -1715 2195 -2262 835 -505 1799 -808 2767 -871 268 -17 859 -6 1082
20 791 94 1427 282 2116 626 785 393 1482 959 2048 1665 276 343 492 684 700
1100 336 676 533 1353 618 2135 26 234 26 991 0 1220 -66 589 -175 1059 -363
1557 -317 842 -797 1584 -1432 2216 -1168 1162 -2744 1803 -4402 1790 -102 0
-246 -5 -320 -9z m965 -463 c832 -94 1525 -318 2255 -729 676 -381 1325 -965
1797 -1617 899 -1242 1258 -2788 1002 -4313 -314 -1872 -1556 -3479 -3294
-4262 -1007 -454 -2094 -604 -3205 -440 -796 116 -1585 414 -2260 853 -509
330 -1002 780 -1385 1262 -672 848 -1092 1883 -1201 2963 -68 680 -15 1373
157 2036 321 1242 1066 2348 2111 3137 288 217 538 369 903 549 452 223 902
378 1377 475 228 46 380 67 713 100 147 14 868 4 1030 -14z"/>
<path d="M5970 11895 c-701 -57 -1357 -235 -1981 -537 -1546 -751 -2666 -2189
-3008 -3863 -202 -990 -128 -2053 211 -2988 223 -619 540 -1168 978 -1697 133
-160 508 -536 670 -669 836 -693 1812 -1123 2835 -1250 325 -41 409 -46 735
-45 324 0 529 13 775 49 1654 240 3104 1203 3963 2631 672 1117 927 2435 721
3729 -108 675 -339 1321 -684 1910 -559 953 -1373 1707 -2370 2195 -616 301
-1318 487 -2035 540 -180 13 -617 10 -810 -5z m885 -129 c380 -37 711 -96 995
-177 793 -226 1502 -609 2115 -1143 126 -110 440 -429 556 -566 394 -467 674
-929 904 -1495 130 -318 243 -712 300 -1045 9 -52 19 -105 22 -117 l5 -23
-733 0 -734 0 -29 123 c-130 559 -426 1142 -813 1601 -680 806 -1582 1283
-2650 1401 -230 26 -683 17 -923 -18 -866 -126 -1606 -486 -2231 -1084 -518
-497 -916 -1188 -1084 -1879 -14 -60 -28 -117 -31 -126 -5 -17 -49 -18 -735
-18 -577 0 -729 3 -729 13 0 6 9 59 19 117 96 525 240 957 481 1445 271 548
595 999 1027 1427 439 435 871 747 1404 1012 619 309 1200 475 1911 547 239
24 728 27 953 5z m-255 -1876 c850 -49 1632 -391 2243 -979 595 -574 956
-1304 1059 -2141 17 -138 17 -663 0 -785 -24 -172 -44 -291 -69 -395 -150
-647 -473 -1230 -943 -1700 -583 -584 -1356 -947 -2170 -1020 -148 -13 -454
-13 -617 0 -1542 125 -2840 1281 -3148 2802 -171 848 -25 1739 406 2475 608
1036 1689 1690 2889 1746 142 7 181 6 350 -3z m-4597 -2961 c21 -5 52 -23 69
-38 l31 -28 -30 -21 -30 -21 -23 24 c-43 46 -150 27 -150 -26 0 -25 31 -42
115 -67 82 -25 114 -53 122 -109 12 -88 -66 -151 -174 -140 -57 6 -109 30
-127 60 -9 15 -7 22 13 38 24 20 24 20 46 -1 48 -45 134 -47 162 -4 14 22 14
26 0 48 -10 15 -37 31 -69 41 -94 29 -129 48 -144 76 -33 65 1 144 71 165 51
16 71 16 118 3z m8907 -17 c39 -29 53 -67 45 -120 -6 -41 -16 -56 -91 -131
-46 -46 -84 -85 -84 -87 0 -2 43 -4 95 -4 l95 0 0 -30 0 -30 -145 0 -145 0 0
29 c0 22 20 48 100 128 93 93 100 103 100 140 0 21 -5 44 -12 51 -19 19 -82
14 -110 -7 -24 -19 -25 -19 -52 -2 l-27 18 27 26 c15 15 41 31 58 37 43 13
116 4 146 -18z m372 1 c49 -24 72 -85 72 -193 1 -154 -43 -215 -154 -215 -69
0 -105 21 -134 79 -40 80 -30 238 19 302 39 51 126 63 197 27z m-9552 -13 l0
-29 -92 -3 -93 -3 -3 -52 -3 -53 80 0 81 0 0 -30 0 -30 -80 0 -80 0 0 -65 0
-65 95 0 95 0 0 -30 0 -30 -130 0 -130 0 0 210 0 210 130 0 130 0 0 -30z
m9180 -678 c39 -29 53 -67 45 -120 -6 -41 -16 -56 -91 -131 -46 -46 -84 -85
-84 -87 0 -2 43 -4 95 -4 l95 0 0 -30 0 -30 -145 0 -145 0 0 29 c0 23 19 48
100 128 94 92 100 101 100 139 0 22 -5 45 -12 52 -19 19 -82 14 -110 -7 -24
-19 -25 -19 -53 -1 l-28 18 28 26 c16 15 42 31 59 36 43 13 116 4 146 -18z
m372 2 c50 -26 72 -86 72 -194 1 -154 -43 -215 -154 -215 -69 0 -105 21 -134
79 -40 80 -29 247 20 305 41 49 128 60 196 25z m-9532 -19 l0 -35 -65 0 -65 0
0 -175 0 -175 -35 0 -35 0 0 175 0 174 -67 3 c-56 2 -68 6 -71 21 -9 45 -2 47
173 47 l165 0 0 -35z m255 24 c85 -23 119 -80 119 -199 1 -159 -43 -202 -211
-208 l-103 -4 0 211 0 211 78 0 c42 0 95 -5 117 -11z m521 -696 c129 -581 383
-1124 739 -1583 623 -801 1493 -1321 2495 -1490 204 -34 365 -45 675 -44 315
0 444 12 729 65 552 103 1114 350 1586 697 297 219 610 528 827 817 312 417
547 909 672 1410 l38 150 731 3 c403 1 732 1 732 0 0 -2 -11 -64 -24 -138
-289 -1613 -1305 -3019 -2745 -3797 -800 -432 -1664 -653 -2556 -653 -527 0
-991 62 -1470 195 -1091 305 -2040 931 -2767 1825 -547 673 -939 1525 -1098
2385 -17 88 -30 166 -30 173 0 9 153 12 730 12 l730 0 6 -27z"/>
<path d="M6279 11410 c-102 -17 -193 -91 -230 -188 -17 -46 -20 -72 -17 -132
7 -120 63 -207 166 -257 49 -24 69 -28 142 -28 72 0 92 4 136 27 54 28 112 86
140 140 11 21 19 64 22 120 4 76 1 92 -20 140 -36 77 -71 113 -141 147 -69 32
-129 42 -198 31z m121 -163 c43 -22 70 -74 70 -134 0 -102 -48 -156 -138 -156
-83 0 -136 67 -129 166 5 90 51 137 132 137 22 0 51 -6 65 -13z"/>
<path d="M5723 11361 c-101 -15 -185 -30 -188 -33 -6 -6 73 -579 80 -587 4 -3
157 17 161 22 1 1 -5 48 -13 104 -8 57 -13 109 -10 117 4 9 30 16 75 21 90 9
93 11 86 67 -10 72 -11 72 -100 59 -43 -6 -81 -8 -85 -4 -4 5 -9 28 -11 53
l-3 45 115 17 c63 9 116 17 118 17 3 1 -3 42 -14 104 -3 15 -11 26 -17 26 -7
-1 -94 -13 -194 -28z"/>
<path d="M6941 11370 c-95 -20 -186 -101 -218 -194 -67 -202 63 -399 275 -413
173 -12 308 111 320 290 3 57 -1 84 -17 127 -52 137 -210 221 -360 190z m139
-163 c65 -33 89 -130 51 -213 -25 -55 -54 -74 -114 -74 -94 0 -141 47 -140
141 1 99 51 159 132 159 25 0 57 -6 71 -13z"/>
<path d="M7431 11263 c-25 -97 -31 -87 53 -108 42 -10 76 -20 76 -21 0 -1 -27
-103 -60 -225 -33 -122 -59 -224 -57 -225 10 -9 153 -42 157 -36 4 4 32 104
64 222 31 118 58 216 61 218 2 2 36 -6 76 -17 40 -11 74 -20 75 -18 6 6 33
122 29 125 -5 5 -437 121 -452 122 -7 0 -17 -17 -22 -37z"/>
<path d="M5138 11246 c-37 -11 -69 -23 -72 -26 -3 -3 11 -55 30 -115 19 -61
41 -132 49 -158 l14 -48 -37 30 c-20 16 -89 72 -152 125 -63 52 -122 96 -131
96 -13 0 -138 -38 -147 -45 -3 -3 166 -554 174 -566 6 -10 148 37 152 49 2 6
-17 75 -42 153 -25 79 -43 145 -41 147 2 2 66 -47 142 -109 76 -62 143 -117
150 -122 19 -14 163 32 163 52 0 14 -16 66 -126 419 -25 78 -48 142 -52 141
-4 -1 -37 -11 -74 -23z"/>
<path d="M8002 11123 c-20 -41 -214 -534 -211 -537 13 -10 297 -118 332 -126
79 -17 154 18 183 87 22 50 17 105 -11 147 -21 31 -22 36 -7 36 32 0 85 36
104 71 38 72 14 165 -55 208 -31 19 -304 131 -319 131 -4 0 -11 -8 -16 -17z
m172 -187 c54 -24 72 -48 60 -80 -12 -31 -40 -37 -91 -20 -26 9 -51 19 -56 23
-6 6 22 101 30 101 1 0 27 -11 57 -24z m-80 -210 c64 -28 80 -51 63 -87 -17
-32 -54 -35 -115 -9 l-50 22 20 49 c11 27 22 49 24 49 2 0 28 -11 58 -24z"/>
<path d="M4336 10954 c-220 -70 -296 -308 -157 -490 106 -139 312 -152 449
-29 102 92 127 230 64 357 -35 72 -90 126 -155 153 -56 23 -144 27 -201 9z
m154 -170 c43 -37 70 -94 70 -150 0 -39 -5 -51 -33 -79 -44 -44 -104 -61 -150
-41 -63 26 -115 124 -102 189 20 93 144 140 215 81z"/>
<path d="M8494 10612 l-242 -207 74 -43 75 -43 37 30 c20 17 41 31 46 31 5 0
47 -21 94 -47 l84 -48 -6 -52 -6 -52 71 -41 c39 -23 73 -39 76 -36 7 7 103
569 103 603 0 17 -18 32 -81 67 -45 25 -82 46 -83 46 0 0 -110 -94 -242 -208z
m221 -88 c-23 -114 -18 -108 -75 -79 -27 14 -50 29 -50 33 -1 8 133 132 138
128 1 -2 -5 -38 -13 -82z"/>
<path d="M3915 10735 c-11 -7 -102 -67 -202 -132 l-181 -118 31 -52 c18 -29
37 -53 42 -53 6 0 37 18 70 40 33 22 62 36 66 32 3 -4 59 -90 124 -192 66
-102 120 -187 122 -189 1 -2 124 70 141 84 2 2 -53 89 -122 195 -69 106 -126
196 -126 199 0 3 28 24 63 45 34 22 63 41 65 42 3 2 -69 115 -72 113 -1 0 -10
-6 -21 -14z"/>
<path d="M9003 10327 c-93 -127 -172 -237 -176 -243 -7 -12 268 -218 281 -211
4 3 22 25 40 50 l32 45 -76 57 -75 56 24 32 c125 166 247 341 244 351 -3 6
-32 30 -65 53 l-61 43 -168 -233z"/>
<path d="M3379 10346 c-103 -28 -209 -146 -209 -233 1 -41 33 -105 69 -135 50
-43 103 -45 207 -9 119 42 164 39 164 -9 0 -38 -70 -66 -97 -39 -7 7 -30 -6
-77 -46 -36 -31 -66 -59 -66 -63 0 -4 17 -18 37 -32 49 -34 138 -34 201 -2
136 72 193 192 141 298 -43 90 -128 109 -268 60 -90 -31 -127 -33 -141 -7 -21
40 29 83 71 60 17 -9 31 -2 90 47 75 61 76 69 16 97 -50 23 -88 27 -138 13z"/>
<path d="M9339 10069 c-107 -121 -194 -225 -194 -230 0 -10 246 -229 257 -229
4 0 24 21 44 46 l38 46 -69 62 -68 62 151 171 c84 94 152 176 152 181 0 6 -26
33 -59 61 l-59 51 -193 -221z"/>
<path d="M2951 9990 l-52 -60 80 -77 81 -78 -70 -75 -70 -74 -80 79 -80 79
-55 -54 c-30 -30 -55 -59 -55 -65 0 -7 24 -34 53 -61 29 -27 126 -118 215
-203 89 -84 164 -152 165 -150 1 3 27 31 57 62 l55 59 -89 82 -89 83 70 73 70
74 89 -82 89 -82 56 61 56 62 -81 77 c-162 154 -347 325 -355 328 -4 1 -31
-25 -60 -58z"/>
<path d="M9869 9747 c-95 -36 -187 -125 -214 -208 -46 -137 30 -301 171 -369
56 -28 151 -31 207 -7 l39 17 -58 67 c-44 52 -63 67 -80 65 -61 -7 -134 58
-134 121 0 91 132 189 210 157 17 -7 42 -26 56 -43 21 -25 25 -39 23 -80 -3
-46 0 -53 50 -113 29 -35 57 -61 62 -58 5 3 19 24 31 47 31 58 31 163 1 229
-26 57 -103 136 -158 163 -50 24 -157 30 -206 12z"/>
<path d="M2432 9382 l-142 -196 28 -22 c15 -12 39 -30 54 -38 l26 -16 44 60
c23 33 46 60 49 60 5 0 325 -228 365 -261 8 -7 28 12 62 58 l50 68 -103 75
c-57 41 -142 103 -189 138 l-87 63 47 65 c26 36 43 69 38 72 -6 4 -30 21 -55
38 l-44 32 -143 -196z"/>
<path d="M10178 9161 c-130 -86 -240 -159 -243 -163 -4 -4 36 -72 89 -152 l95
-146 51 32 c27 17 50 35 50 39 0 5 -21 40 -46 80 -25 39 -42 75 -38 79 5 5 92
63 194 130 102 67 184 125 183 129 -6 22 -80 131 -88 130 -5 0 -117 -71 -247
-158z"/>
<path d="M2201 9033 c-32 -53 -38 -70 -28 -79 20 -19 484 -294 495 -294 15 0
85 118 79 133 -5 11 -487 307 -500 307 -3 0 -24 -30 -46 -67z"/>
<path d="M10500 8855 c-91 -46 -181 -98 -202 -115 -109 -91 -104 -253 11 -371
48 -49 64 -59 112 -69 31 -7 73 -10 93 -6 20 4 117 47 216 96 l180 90 -36 72
c-20 40 -37 74 -39 76 -1 1 -77 -36 -168 -83 -111 -57 -177 -85 -200 -85 -43
0 -77 35 -84 87 -4 35 -1 42 24 64 16 14 99 60 184 103 85 44 155 80 157 81 6
5 -68 145 -76 145 -4 -1 -81 -39 -172 -85z"/>
<path d="M2015 8699 c-48 -94 -85 -172 -83 -174 6 -5 528 -265 533 -265 3 0
43 76 90 170 l85 170 -60 30 -60 30 -46 -92 c-25 -51 -48 -95 -50 -97 -5 -5
-83 30 -90 40 -2 5 14 45 36 90 23 44 40 82 38 84 -9 8 -110 56 -113 53 -1 -2
-21 -40 -44 -86 l-41 -82 -40 20 c-22 11 -40 25 -40 30 0 6 20 51 45 100 l45
90 -60 30 -60 30 -85 -171z"/>
<path d="M1842 8324 l-30 -86 88 -127 c48 -69 87 -127 85 -129 -1 -1 -53 16
-116 38 -62 22 -116 37 -120 33 -9 -11 -49 -121 -49 -137 0 -8 84 -43 218 -91
119 -43 245 -88 278 -101 l62 -22 27 73 c15 41 24 78 21 83 -3 5 -55 26 -116
47 -61 21 -108 41 -103 45 4 5 69 25 143 45 74 21 140 42 146 49 14 14 67 166
60 173 -3 3 -81 -18 -173 -46 -92 -28 -173 -51 -180 -51 -6 0 -53 65 -105 145
-51 80 -96 145 -99 145 -4 0 -20 -39 -37 -86z"/>
<path d="M10675 8254 c-143 -51 -264 -95 -269 -97 -13 -5 91 -298 124 -351 73
-114 246 -93 280 36 l11 37 32 -19 c42 -26 112 -26 155 0 35 22 71 87 72 130
0 13 -26 100 -57 192 -42 124 -61 168 -72 167 -9 -1 -133 -43 -276 -95z m239
-159 c19 -60 12 -89 -24 -100 -32 -10 -57 12 -75 66 -19 56 -18 59 28 76 50
18 52 16 71 -42z m-209 -84 c25 -77 -2 -122 -61 -100 -22 8 -69 118 -56 131
13 13 87 36 93 29 4 -3 14 -30 24 -60z"/>
<path d="M6016 9695 c-869 -105 -1667 -547 -2211 -1222 -372 -462 -605 -993
-706 -1610 -31 -183 -38 -667 -14 -868 77 -648 324 -1231 739 -1745 83 -103
292 -316 401 -410 632 -542 1439 -831 2255 -807 527 16 962 123 1411 347 657
328 1172 839 1499 1485 342 678 444 1450 289 2190 -136 649 -438 1206 -908
1676 -295 295 -532 465 -896 644 -352 173 -709 277 -1092 319 -175 20 -609 20
-767 1z m793 -130 c514 -69 1015 -260 1421 -542 222 -155 526 -437 682 -633
410 -517 641 -1098 699 -1760 15 -166 7 -508 -16 -675 -83 -623 -343 -1202
-750 -1675 -515 -597 -1195 -971 -1985 -1091 -125 -19 -188 -22 -450 -23 -329
-1 -442 11 -704 70 -992 223 -1827 906 -2235 1826 -353 797 -372 1682 -54
2493 232 592 652 1117 1178 1474 461 313 952 488 1550 551 116 13 531 3 664
-15z"/>
<path d="M6387 9379 c-18 -11 -307 -362 -325 -396 -10 -18 -8 -26 12 -50 38
-46 46 -69 46 -135 0 -112 -59 -172 -163 -165 -69 4 -103 26 -135 88 -20 37
-23 55 -19 112 5 79 -2 90 -80 121 -26 11 -109 45 -183 77 -170 72 -185 76
-198 52 -6 -11 -7 -99 -4 -217 5 -217 4 -212 70 -248 40 -21 64 -70 64 -128 0
-58 -14 -85 -55 -110 -71 -43 -157 -14 -195 66 -13 27 -29 60 -36 74 -8 16
-24 28 -46 32 -183 39 -244 48 -252 40 -6 -6 42 -95 135 -248 178 -295 175
-289 151 -280 -11 4 -48 10 -85 13 -170 14 -317 -95 -364 -272 -25 -93 -29
-234 -11 -354 9 -58 16 -119 16 -136 0 -37 -7 -47 -202 -268 -76 -86 -138
-163 -138 -171 0 -13 14 -16 75 -16 l75 0 -43 -53 c-80 -98 -266 -459 -254
-491 6 -14 13 -14 63 5 73 28 80 20 57 -62 -24 -86 -24 -408 0 -589 9 -68 17
-130 17 -137 0 -29 31 -9 76 47 26 33 52 59 58 57 7 -2 14 -57 17 -143 10
-209 50 -401 122 -584 71 -181 218 -505 229 -505 8 0 16 30 24 86 6 47 14 103
18 124 l8 39 47 -91 c105 -198 253 -388 544 -702 177 -189 181 -191 157 -68
-6 32 -10 61 -7 63 2 2 83 -73 180 -167 97 -94 181 -168 187 -164 5 3 10 24
10 45 0 21 4 42 10 45 5 3 45 -29 87 -73 89 -90 216 -182 251 -182 13 0 33 5
45 12 49 25 176 129 229 187 31 33 62 61 67 61 6 0 11 -17 11 -39 0 -79 14
-71 204 112 165 158 179 169 173 138 -4 -19 -10 -60 -13 -90 l-5 -56 101 105
c326 339 503 561 617 775 25 47 47 85 48 83 2 -2 11 -58 21 -126 10 -74 21
-121 28 -119 18 6 249 558 284 682 38 130 55 239 61 394 4 102 10 156 17 158
7 2 33 -23 59 -57 75 -94 72 -99 101 169 19 184 15 435 -9 521 -9 30 -12 59
-7 64 5 5 36 -1 71 -13 34 -11 65 -19 67 -16 3 3 -30 80 -74 172 -76 160 -172
323 -207 352 -30 24 -18 31 52 31 39 0 72 4 76 9 5 10 -136 181 -245 296 -93
99 -109 149 -85 264 19 92 19 257 0 339 -53 225 -201 334 -412 304 -35 -5 -63
-7 -63 -4 0 3 68 115 150 249 83 134 153 250 156 257 10 27 -17 27 -143 1
-147 -31 -161 -36 -169 -73 -21 -86 -80 -142 -148 -142 -79 0 -126 50 -126
135 0 62 20 98 74 129 29 17 48 36 55 57 7 19 11 110 11 225 0 185 -1 194 -19
194 -22 0 -416 -164 -438 -181 -9 -8 -13 -35 -13 -83 0 -55 -5 -82 -22 -116
-35 -67 -66 -85 -150 -85 -67 0 -71 1 -103 37 -63 69 -69 158 -14 235 37 53
37 72 -3 123 -120 151 -275 339 -289 348 -9 6 -21 6 -32 1z m-262 -1314 c87
-15 165 -80 227 -192 22 -40 43 -73 48 -73 4 0 25 30 46 67 54 94 117 155 187
182 67 25 118 26 219 7 161 -31 250 -82 412 -237 57 -54 110 -99 118 -99 8 0
27 14 44 31 96 102 218 169 308 169 86 0 128 -27 169 -109 32 -65 32 -66 31
-216 0 -104 -6 -171 -17 -218 -31 -126 -29 -134 73 -244 49 -54 90 -101 90
-106 0 -4 -12 -5 -27 -2 -16 2 -72 2 -125 -2 l-96 -6 86 -61 c115 -81 227
-195 286 -290 27 -42 46 -79 44 -82 -3 -3 -35 6 -72 20 -36 14 -66 23 -66 20
0 -3 14 -26 31 -50 48 -71 107 -203 130 -295 14 -59 22 -129 25 -234 l5 -150
-40 45 c-44 49 -53 68 -107 215 -98 270 -265 520 -494 739 -85 82 -94 94 -117
162 -13 39 -40 98 -59 130 -19 31 -33 58 -32 60 2 1 36 -11 76 -27 40 -16 79
-29 85 -29 24 0 -111 124 -197 181 -52 34 -81 59 -70 59 23 0 202 -43 297 -71
38 -11 71 -18 74 -15 9 8 -206 145 -307 196 -196 97 -339 132 -560 134 -104 0
-164 5 -163 11 1 6 14 25 28 43 30 38 87 69 142 78 36 6 52 3 141 -25 43 -13
41 1 -5 45 -57 53 -110 76 -185 82 -95 7 -184 -23 -296 -98 -49 -33 -98 -60
-111 -60 -12 0 -56 23 -98 51 -130 88 -173 104 -283 104 -85 0 -100 -3 -140
-27 -48 -28 -117 -94 -108 -103 3 -3 25 2 49 11 65 24 145 22 195 -3 46 -24
108 -89 98 -104 -3 -6 -51 -7 -122 -3 -270 14 -562 -81 -834 -273 -70 -49 -93
-73 -70 -73 5 0 45 13 90 30 71 26 257 70 294 70 7 0 -5 -11 -28 -23 -84 -49
-161 -106 -208 -156 -26 -29 -45 -55 -42 -58 3 -3 34 7 70 22 35 15 69 26 75
24 5 -2 -6 -29 -25 -59 -19 -30 -44 -85 -55 -122 -19 -64 -26 -74 -132 -180
-193 -193 -307 -348 -407 -553 -32 -66 -73 -163 -90 -215 -31 -96 -60 -148
-105 -190 l-25 -23 0 102 c0 218 53 413 154 562 20 29 36 57 36 61 0 4 -32 -5
-70 -19 -39 -14 -73 -23 -77 -20 -7 8 34 72 101 156 56 70 163 160 273 231 40
26 70 50 66 53 -3 4 -65 7 -136 7 l-129 0 83 91 c122 132 115 111 90 235 -66
327 -20 525 132 566 44 11 54 10 114 -10 82 -29 121 -53 206 -131 37 -33 74
-61 81 -61 8 0 27 14 43 31 59 65 223 205 275 237 69 41 155 71 233 82 60 8
75 7 150 -5z m139 -643 c40 -37 89 -76 109 -86 l35 -20 54 41 c29 22 74 61
100 87 26 25 55 46 64 46 9 0 71 -27 137 -61 65 -33 181 -85 256 -116 75 -30
154 -65 176 -78 101 -59 165 -160 189 -297 9 -48 39 -144 71 -226 72 -183 85
-240 62 -276 -23 -35 -59 -51 -152 -70 -118 -24 -182 -44 -247 -77 -70 -35
-78 -36 -108 -4 -13 14 -27 25 -31 25 -12 0 17 -77 56 -146 58 -103 46 -130
-70 -158 -49 -11 -56 -15 -40 -22 36 -16 128 -10 162 11 39 23 59 11 49 -29
-11 -44 -54 -58 -166 -54 -54 2 -96 0 -94 -4 2 -4 30 -16 60 -28 63 -23 168
-30 201 -12 30 17 41 15 48 -8 18 -57 -32 -91 -133 -91 -59 0 -98 8 -191 37
-18 5 -23 4 -19 -7 9 -26 157 -83 231 -87 37 -2 67 -8 67 -12 0 -19 -79 -72
-129 -87 -70 -20 -195 -13 -273 15 -66 23 -160 78 -201 118 -28 26 -29 27 -25
130 4 131 12 143 144 209 121 60 160 88 179 125 17 32 12 54 -18 88 -27 29
-47 28 -73 -5 l-21 -27 -99 19 c-133 27 -316 27 -441 1 l-93 -20 -28 27 c-34
33 -52 34 -79 5 -25 -27 -29 -44 -20 -79 9 -36 61 -74 181 -134 126 -63 138
-79 145 -188 9 -129 7 -133 -80 -193 -103 -70 -174 -96 -280 -102 -108 -5
-185 15 -237 63 l-37 33 50 7 c89 12 193 46 227 76 l33 28 -45 -14 c-177 -57
-356 -13 -301 74 8 12 14 12 41 1 65 -27 228 -4 262 37 12 15 10 16 -17 9 -47
-12 -137 -14 -171 -5 -16 5 -41 20 -54 34 -20 21 -22 29 -13 43 6 9 17 15 25
13 79 -24 116 -29 154 -24 53 7 49 19 -9 28 -54 9 -107 41 -107 65 0 10 20 60
45 111 51 105 56 129 21 94 -28 -28 -33 -27 -141 26 -33 16 -112 41 -175 55
-140 31 -174 45 -195 78 -25 37 -15 82 59 276 36 92 68 195 74 233 14 91 54
170 119 235 55 55 115 87 258 138 44 15 143 60 220 100 77 40 148 72 159 73
10 1 51 -29 90 -67z m1705 -1168 c38 -56 78 -127 90 -158 56 -150 74 -581 33
-807 -25 -139 -81 -319 -92 -298 -4 8 -13 50 -19 94 -15 95 -57 273 -75 316
-13 30 -13 28 -20 -52 -25 -304 -143 -631 -327 -909 -72 -108 -171 -230 -188
-230 -4 0 10 89 31 198 21 108 37 204 35 212 -1 8 -30 -37 -64 -102 -85 -160
-132 -235 -228 -364 -97 -130 -233 -286 -244 -279 -5 2 -11 60 -15 127 -13
256 -18 299 -31 288 -7 -6 -15 -31 -19 -56 -15 -113 -110 -337 -195 -463 -81
-119 -202 -231 -249 -231 -24 0 -149 119 -204 194 -99 133 -191 346 -232 539
-14 64 -24 14 -36 -188 -7 -118 -16 -215 -21 -215 -11 0 -152 162 -230 267
-90 119 -196 290 -256 412 -25 52 -48 90 -50 84 -3 -8 50 -311 72 -407 3 -16
0 -15 -22 5 -38 36 -144 174 -206 269 -166 257 -252 511 -295 870 l-7 65 -24
-73 c-12 -41 -32 -117 -42 -170 -11 -54 -24 -122 -30 -152 -11 -53 -11 -54
-25 -28 -21 40 -61 205 -79 324 -32 215 -13 608 36 751 29 84 205 340 222 323
3 -3 2 -25 -4 -48 -16 -74 -26 -275 -18 -393 6 -105 27 -254 34 -247 2 2 8 55
14 118 19 191 23 200 38 90 19 -144 56 -245 174 -475 115 -226 159 -347 179
-487 7 -49 16 -88 20 -88 14 0 23 148 16 250 -7 112 -32 232 -79 390 -47 155
-54 192 -62 285 -8 93 6 209 36 298 33 97 50 109 131 87 55 -16 60 -32 34
-129 -25 -93 -48 -121 -85 -102 -11 6 -34 11 -51 11 -40 0 -42 8 64 -185 140
-252 131 -225 109 -309 -14 -55 -18 -109 -18 -241 0 -188 10 -250 72 -440 35
-111 161 -386 182 -399 6 -4 11 -6 11 -4 0 2 -16 80 -35 173 -37 178 -61 466
-38 452 6 -4 14 -24 18 -44 23 -127 131 -294 335 -523 186 -209 296 -393 340
-567 6 -24 15 -43 19 -43 5 0 19 33 31 73 53 178 134 304 372 582 195 228 266
352 303 528 3 17 10 25 17 21 25 -15 -13 -360 -61 -564 -11 -46 -19 -85 -17
-87 11 -11 124 215 164 327 78 219 94 295 99 476 5 130 2 167 -17 259 l-21
107 26 39 c37 57 195 348 195 361 0 10 -47 7 -95 -7 -33 -9 -45 8 -66 90 -25
98 -23 126 15 144 34 16 93 3 118 -26 24 -28 48 -110 60 -210 16 -126 2 -232
-61 -449 -62 -214 -85 -363 -78 -502 3 -57 10 -109 15 -114 12 -12 14 -7 32
117 18 124 52 212 175 460 122 245 161 354 172 482 3 41 7 72 9 70 5 -4 22
-125 29 -204 4 -40 11 -71 15 -68 4 3 14 44 21 92 19 120 16 374 -4 491 -10
50 -17 95 -17 99 0 14 74 -78 139 -173z m-1444 -659 c33 -9 87 -30 119 -46 86
-45 174 -76 250 -90 88 -15 101 -34 100 -138 -1 -81 -27 -167 -65 -215 -26
-33 -32 -33 -46 4 -15 40 -34 38 -57 -5 -29 -54 -119 -133 -183 -162 -83 -36
-208 -50 -332 -36 -135 15 -208 50 -290 140 -34 36 -61 70 -61 74 0 22 -31 6
-46 -23 -16 -31 -17 -31 -31 -12 -9 10 -27 44 -42 74 -23 48 -26 67 -26 157 0
64 4 106 12 114 6 6 48 20 94 30 45 11 134 43 198 71 64 29 136 57 161 64 63
18 175 17 245 -1z m-259 -877 c9 -8 40 -83 68 -164 31 -89 58 -150 67 -152 10
-2 30 43 68 154 55 159 69 184 101 184 10 0 46 9 79 19 34 10 61 16 61 11 0
-4 -42 -90 -94 -191 -117 -229 -158 -322 -190 -429 -13 -47 -26 -78 -29 -70
-53 172 -84 247 -187 452 -66 131 -120 239 -120 241 0 10 162 -41 176 -55z"/>
<path d="M5011 7852 c-39 -21 -71 -73 -71 -116 l0 -29 38 43 c29 33 45 43 69
43 40 0 99 -46 144 -112 19 -28 39 -52 46 -55 15 -6 102 49 110 71 9 23 -73
95 -154 135 -80 39 -137 45 -182 20z"/>
<path d="M7645 7850 c-59 -23 -188 -118 -193 -141 -3 -19 72 -79 99 -79 10 0
39 26 64 58 48 58 116 112 142 112 25 0 52 -20 78 -58 23 -34 25 -35 25 -12 0
14 -9 44 -19 67 -33 72 -100 90 -196 53z"/>
<path d="M5845 6986 c-56 -18 -99 -41 -140 -77 -41 -36 -44 -48 -11 -42 16 3
48 -8 93 -33 62 -35 75 -39 143 -39 l75 0 30 -62 c16 -35 33 -63 37 -63 4 0 8
15 8 33 1 17 14 82 29 142 16 61 27 111 26 113 -1 2 -16 -9 -33 -23 -16 -14
-34 -25 -40 -25 -5 0 -25 14 -43 31 -36 34 -87 59 -116 58 -10 0 -36 -6 -58
-13z"/>
<path d="M6848 6977 c-20 -8 -51 -26 -68 -41 -36 -30 -52 -32 -70 -10 -8 8
-21 19 -30 24 -13 7 -10 -16 19 -135 l36 -144 30 62 30 62 74 2 c79 2 114 13
171 51 22 15 45 22 63 19 35 -5 34 2 -5 42 -65 66 -174 96 -250 68z"/>
<path d="M11146 6851 c-33 -37 -41 -171 -14 -243 14 -38 62 -56 97 -37 39 22
51 55 51 149 0 111 -20 150 -78 150 -25 0 -45 -7 -56 -19z"/>
<path d="M11147 6162 c-23 -26 -38 -114 -30 -181 5 -42 13 -63 34 -83 34 -34
59 -35 96 -4 27 23 28 29 31 123 3 84 0 103 -17 131 -18 27 -27 32 -59 32 -25
0 -45 -7 -55 -18z"/>
<path d="M1880 6031 c0 -83 4 -142 10 -146 23 -14 105 8 132 36 26 26 28 33
28 109 0 77 -2 83 -29 111 -26 25 -37 29 -85 29 l-56 0 0 -139z"/>
<path d="M2305 4944 c-22 -8 -44 -19 -49 -24 -5 -5 1 -36 17 -78 l26 -70 -219
-82 -219 -82 29 -77 c18 -48 33 -75 42 -73 7 2 104 37 216 79 116 43 206 72
211 67 4 -5 18 -37 31 -72 25 -70 26 -70 108 -35 l40 18 -82 220 c-51 134 -88
221 -97 222 -8 1 -32 -5 -54 -13z"/>
<path d="M10495 4861 c-96 -45 -167 -165 -169 -286 -1 -61 3 -80 29 -130 53
-104 169 -170 295 -169 79 1 124 19 184 74 117 108 138 293 47 415 -24 32 -44
45 -106 68 -42 16 -78 27 -79 25 -17 -21 -107 -281 -100 -287 5 -5 23 -13 39
-19 17 -5 37 -13 46 -16 13 -6 22 9 45 69 16 41 32 75 35 75 4 0 15 -20 25
-45 16 -42 16 -48 0 -89 -33 -87 -96 -121 -179 -96 -57 16 -84 35 -107 73 -37
59 -15 143 46 179 18 10 37 31 42 46 5 15 19 51 31 80 l21 52 -53 0 c-29 0
-69 -9 -92 -19z"/>
<path d="M2328 4396 c-234 -84 -298 -351 -123 -520 120 -117 309 -112 433 12
118 118 111 316 -15 439 -75 73 -201 102 -295 69z m179 -172 c29 -18 63 -85
63 -122 0 -98 -161 -181 -245 -126 -32 21 -65 83 -65 121 0 103 157 184 247
127z"/>
<path d="M10186 4309 c-31 -57 -36 -73 -25 -80 8 -5 71 -41 141 -81 71 -39
126 -73 124 -76 -3 -2 -91 -10 -196 -17 -105 -7 -192 -14 -194 -16 -11 -13
-76 -131 -76 -138 0 -6 506 -296 517 -296 2 0 22 32 44 72 l39 71 -139 78
c-99 56 -135 81 -123 85 9 3 67 9 127 13 61 3 140 9 177 13 l68 6 40 70 c23
39 37 73 33 77 -9 8 -510 290 -515 290 -1 0 -20 -32 -42 -71z"/>
<path d="M2663 3829 c-67 -26 -147 -98 -180 -163 -38 -73 -38 -168 1 -248 37
-78 120 -153 193 -174 89 -26 146 -16 220 37 34 24 62 48 62 53 1 11 -170 246
-179 246 -9 0 -90 -61 -90 -67 0 -4 17 -29 38 -57 59 -78 58 -76 13 -76 -31 0
-47 7 -74 33 -39 37 -63 102 -53 143 10 40 84 110 129 122 81 23 167 -39 167
-121 0 -34 9 -55 48 -109 26 -37 52 -66 57 -65 6 2 21 23 35 48 57 100 21 241
-87 339 -87 79 -193 100 -300 59z"/>
<path d="M9893 3742 c-139 -50 -221 -176 -211 -323 6 -82 35 -137 108 -202 60
-54 121 -77 204 -77 114 0 228 77 279 189 30 64 30 178 0 243 -65 143 -239
220 -380 170z m144 -163 c53 -25 90 -69 99 -114 9 -48 -1 -78 -37 -120 -58
-65 -147 -57 -218 20 -36 40 -41 50 -41 93 0 55 22 91 74 123 40 24 70 24 123
-2z"/>
<path d="M3030 3304 c-91 -85 -187 -177 -214 -204 l-50 -49 44 -48 c24 -26 83
-89 130 -140 l87 -92 46 47 47 47 -72 78 -71 79 36 36 37 37 69 -69 69 -68 46
43 47 42 -68 69 -68 68 36 36 36 35 74 -79 75 -79 48 43 c48 44 48 44 29 67
-30 38 -237 257 -243 257 -3 -1 -79 -71 -170 -156z"/>
<path d="M9475 3281 c-22 -10 -92 -68 -155 -129 l-115 -111 212 -213 213 -213
57 57 58 58 -73 73 c-39 40 -72 78 -72 85 0 15 -13 18 115 -23 61 -19 117 -35
125 -35 18 0 137 116 128 125 -3 3 -59 20 -124 38 -106 29 -118 35 -114 52 3
11 5 47 5 81 0 51 -4 66 -28 97 -55 73 -150 96 -232 58z m100 -166 c34 -33 32
-49 -17 -101 l-43 -45 -45 46 -45 47 44 39 c51 45 73 48 106 14z"/>
<path d="M3431 3123 c-23 -27 -41 -50 -41 -53 0 -3 25 -25 55 -50 30 -25 55
-49 55 -53 0 -4 -67 -86 -150 -181 l-149 -174 59 -51 c32 -28 62 -51 67 -51 4
0 75 79 157 175 l149 174 59 -51 59 -51 35 34 c64 61 69 53 -108 205 -89 76
-172 147 -184 157 -22 17 -23 16 -63 -30z"/>
<path d="M9014 2889 c-228 -176 -211 -155 -168 -209 20 -25 39 -46 43 -48 5
-1 30 15 57 36 27 21 54 41 60 45 7 4 68 -67 154 -178 l142 -185 60 47 c32 26
61 50 64 55 3 4 -59 89 -138 189 l-142 182 34 26 c19 14 47 37 63 51 l28 25
-36 48 c-20 26 -39 47 -43 47 -5 0 -84 -59 -178 -131z"/>
<path d="M3695 2599 c-88 -133 -161 -247 -163 -253 -2 -10 29 -33 103 -78 l31
-18 59 92 c33 50 63 95 66 100 7 11 168 -92 169 -107 0 -5 -27 -50 -60 -100
-33 -49 -60 -93 -60 -96 0 -14 131 -92 139 -83 14 15 312 465 317 479 5 13
-103 95 -125 95 -8 0 -94 -121 -127 -178 -1 -2 -41 22 -88 53 l-85 57 60 89
c32 48 59 92 59 96 0 7 -108 82 -129 90 -3 2 -78 -106 -166 -238z"/>
<path d="M8635 2631 c-147 -70 -203 -189 -140 -296 43 -74 112 -90 263 -61 87
16 110 12 119 -22 4 -19 1 -30 -17 -44 -27 -22 -49 -23 -76 -4 -18 13 -26 10
-83 -24 -89 -54 -89 -54 -52 -89 62 -58 148 -63 247 -15 107 51 169 154 144
239 -35 116 -101 143 -274 110 -87 -17 -111 -14 -127 17 -21 40 36 74 80 46
15 -9 30 -4 89 33 40 24 72 49 72 56 0 7 -16 24 -36 40 -49 37 -148 44 -209
14z"/>
<path d="M4222 2255 c-72 -146 -132 -267 -132 -270 0 -3 76 -43 170 -90 l170
-85 30 60 30 60 -92 46 c-51 25 -95 48 -97 50 -5 5 30 83 40 90 5 2 45 -14 90
-36 44 -23 82 -40 84 -38 8 9 56 110 53 113 -2 1 -40 21 -86 44 l-82 41 20 40
c11 22 25 40 30 40 6 0 51 -20 100 -45 l90 -45 30 60 30 60 -170 85 c-93 47
-171 85 -172 85 -2 0 -63 -119 -136 -265z"/>
<path d="M8060 2329 c-90 -38 -166 -71 -168 -73 -3 -4 199 -489 222 -532 11
-21 13 -21 176 48 91 38 169 74 174 78 9 9 -32 120 -45 120 -5 0 -49 -18 -100
-40 -51 -22 -94 -39 -95 -37 -2 1 -12 24 -23 50 l-20 47 32 13 c18 8 57 24 88
37 l57 23 -21 51 c-11 28 -23 54 -27 59 -3 4 -44 -9 -89 -29 -46 -20 -86 -32
-90 -27 -17 18 -33 75 -25 82 5 4 45 23 89 41 44 18 84 36 88 40 10 9 -35 120
-48 120 -5 -1 -84 -32 -175 -71z"/>
<path d="M4731 2309 c-75 -201 -191 -524 -191 -534 0 -14 142 -68 151 -57 3 4
21 49 39 100 18 50 36 92 41 92 10 0 15 -20 29 -125 17 -129 11 -120 101 -154
45 -17 84 -29 86 -27 3 3 -4 58 -16 123 -12 65 -21 121 -21 125 0 4 18 11 41
14 87 14 149 92 149 187 0 55 -16 90 -57 128 -37 35 -55 44 -192 94 -64 24
-124 46 -133 50 -13 5 -20 1 -27 -16z m175 -190 c27 -11 52 -26 56 -32 13 -20
9 -60 -9 -79 -20 -22 -45 -23 -101 -1 -39 15 -43 19 -37 42 9 34 33 91 39 91
2 0 26 -9 52 -21z"/>
<path d="M7545 2148 c-77 -22 -144 -44 -149 -48 -7 -7 147 -556 160 -569 7 -8
147 34 151 46 3 6 -7 50 -21 96 -14 47 -26 93 -26 103 0 13 30 -11 93 -74 l94
-94 88 27 89 27 -92 91 c-51 49 -92 93 -92 97 0 4 9 15 21 26 96 87 50 268
-76 303 -61 17 -89 13 -240 -31z m189 -130 c35 -50 14 -84 -66 -111 l-47 -15
-16 53 c-20 71 -20 72 23 83 62 17 89 14 106 -10z"/>
<path d="M5341 2064 c0 -69 44 -562 50 -568 7 -8 193 -36 198 -30 3 3 35 80
72 171 l66 166 6 -54 c4 -30 9 -112 13 -182 4 -80 11 -130 18 -132 6 -2 52
-10 103 -18 l91 -14 77 186 c43 102 95 227 116 278 22 51 39 96 39 101 0 8
-168 38 -174 31 -1 -2 -29 -83 -61 -179 -32 -96 -62 -179 -66 -184 -5 -6 -9 5
-9 25 0 18 -5 109 -11 201 l-12 166 -74 11 c-41 6 -82 11 -92 11 -14 0 -34
-42 -92 -187 l-74 -187 -7 198 c-4 140 -10 201 -18 206 -7 4 -39 11 -72 14
-33 4 -66 10 -74 13 -11 4 -14 -5 -13 -43z"/>
<path d="M7061 2044 c-47 -8 -86 -16 -88 -18 -6 -6 -125 -617 -121 -621 9 -9
161 23 169 36 5 8 9 28 9 46 0 17 5 35 10 38 10 6 172 35 197 35 7 0 22 -19
34 -42 12 -24 22 -44 23 -45 2 -3 107 13 153 23 20 4 17 13 -57 146 -179 327
-228 412 -236 414 -5 1 -47 -4 -93 -12z m119 -354 c0 -4 -27 -12 -61 -17 l-61
-10 6 31 c3 17 10 62 17 99 l11 69 44 -82 c24 -45 44 -85 44 -90z"/>
<path d="M6220 1690 l0 -300 190 0 190 0 0 70 0 70 -110 0 -110 0 0 50 0 49
96 3 97 3 0 60 0 60 -97 3 -96 3 0 49 0 50 110 0 110 0 0 65 0 65 -190 0 -190
0 0 -300z"/>
</g>
</svg>
