<?xml version="1.0" standalone="no"?>
<!DOCTYPE svg PUBLIC "-//W3C//DTD SVG 20010904//EN"
 "http://www.w3.org/TR/2001/REC-SVG-20010904/DTD/svg10.dtd">
<svg version="1.0" xmlns="http://www.w3.org/2000/svg" viewBox="0 0 351.000000 350.000000">

<g transform="translate(0.000000,350.000000) scale(0.100000,-0.100000)"
fill="#00245d">
<path d="M1560 3350 c-367 -51 -674 -203 -936 -464 -236 -237 -373 -491 -445
-826 -20 -90 -23 -135 -23 -310 0 -175 3 -220 23 -310 72 -335 209 -589 445
-826 237 -236 491 -373 826 -445 90 -20 135 -23 310 -23 175 0 220 3 310 23
335 72 589 209 826 445 236 237 373 491 445 826 20 90 23 135 23 310 0 175 -3
220 -23 310 -72 335 -209 589 -445 826 -236 235 -494 375 -821 444 -114 24
-404 35 -515 20z m455 -110 c314 -54 577 -192 810 -425 296 -295 445 -652 445
-1065 0 -413 -149 -770 -445 -1065 -295 -296 -652 -445 -1065 -445 -413 0
-770 149 -1065 445 -296 295 -445 652 -445 1065 0 574 323 1096 839 1354 278
140 615 189 926 136z"/>
<path d="M1527 3215 c-606 -99 -1090 -559 -1219 -1160 -25 -117 -35 -369 -19
-490 23 -176 89 -381 168 -525 104 -189 301 -405 472 -519 254 -169 527 -251
831 -251 405 0 755 145 1041 430 205 204 322 407 392 675 39 152 50 260 44
435 -15 390 -154 708 -431 986 -213 212 -451 343 -741 406 -121 26 -413 33
-538 13z m509 -46 c504 -97 921 -460 1093 -951 98 -282 101 -639 7 -914 -83
-244 -210 -442 -391 -612 -202 -189 -462 -319 -737 -369 -126 -22 -371 -22
-498 1 -596 109 -1054 562 -1172 1160 -31 156 -30 377 0 534 125 633 630 1097
1277 1173 103 11 301 2 421 -22z"/>
<path d="M1581 3104 c-12 -15 -21 -30 -21 -33 0 -22 36 -50 75 -60 34 -9 45
-16 45 -31 0 -22 -27 -40 -50 -33 -8 3 -25 17 -37 31 l-23 27 0 -35 c0 -35 1
-36 45 -38 58 -2 92 11 106 42 17 36 -3 63 -59 79 -39 12 -47 18 -47 38 0 35
37 37 64 3 24 -31 36 -26 27 11 -6 22 -11 25 -55 25 -42 0 -53 -4 -70 -26z"/>
<path d="M1817 3120 c-21 -14 -47 -62 -47 -90 0 -53 49 -100 105 -100 23 0 91
49 69 50 -6 0 -17 -7 -24 -15 -16 -19 -50 -19 -75 -1 -14 10 -19 26 -18 65 1
101 71 124 108 36 8 -17 10 -15 13 13 2 19 1 36 -1 39 -11 10 -113 13 -130 3z"/>
<path d="M2028 3097 c19 -23 -15 -146 -43 -157 -22 -9 -23 -8 44 -29 44 -14
46 -14 32 3 -10 12 -7 55 5 78 2 3 20 1 39 -5 41 -12 48 -44 16 -76 -18 -18
-18 -19 19 -30 51 -15 68 -15 48 2 -14 11 -13 19 5 85 14 49 25 72 35 72 24 0
4 14 -39 26 -35 11 -53 4 -30 -11 6 -3 6 -17 -1 -35 -8 -26 -14 -29 -36 -24
-45 11 -49 16 -40 52 5 20 15 32 26 33 14 0 14 2 -3 8 -11 5 -36 12 -55 16
-30 7 -33 6 -22 -8z"/>
<path d="M1290 3053 c-58 -21 -70 -28 -54 -33 14 -6 28 -31 44 -79 22 -62 23
-73 10 -81 -26 -17 3 -11 83 17 77 27 82 31 68 67 -7 18 -9 16 -19 -12 -7 -21
-19 -33 -37 -38 -31 -8 -41 0 -50 38 -8 33 16 48 42 27 15 -13 16 -11 9 16 -9
36 -26 57 -26 32 0 -9 -8 -21 -19 -26 -16 -9 -21 -6 -31 20 -19 44 13 65 64
44 14 -6 17 -4 15 10 -6 26 -16 26 -99 -2z"/>
<path d="M1128 2983 c-26 -17 -26 -17 -5 -27 20 -10 64 -73 56 -80 -2 -2 -35
9 -74 24 -66 27 -71 27 -97 12 -26 -15 -38 -34 -20 -31 22 4 33 -6 62 -58 26
-46 30 -60 21 -75 -14 -22 -11 -22 35 -1 34 17 35 18 13 23 -23 6 -88 100 -69
100 5 0 44 -14 86 -30 49 -20 81 -27 87 -21 6 6 -6 35 -33 80 -35 59 -40 74
-30 86 16 20 2 19 -32 -2z"/>
<path d="M2297 2979 c-23 -13 -47 -62 -47 -95 0 -16 12 -38 34 -60 27 -27 42
-34 73 -34 103 1 142 139 52 186 -32 16 -86 18 -112 3z m116 -30 c22 -35 -31
-132 -75 -137 -55 -6 -58 67 -6 133 23 29 64 31 81 4z"/>
<path d="M2546 2872 c7 -25 -76 -133 -98 -128 -31 7 -19 -8 52 -61 68 -53 72
-53 94 -16 5 8 -3 10 -26 6 -25 -4 -38 0 -52 16 -18 20 -17 21 30 81 38 48 51
59 68 54 17 -4 15 0 -9 20 -47 41 -64 49 -59 28z"/>
<path d="M1579 2851 c-437 -80 -778 -391 -896 -816 -26 -93 -28 -114 -28 -285
0 -171 2 -192 28 -285 108 -389 402 -683 793 -792 92 -26 113 -28 284 -28 171
0 192 2 285 28 389 108 683 402 792 793 26 92 28 113 28 284 0 171 -2 192 -28
284 -89 319 -299 574 -591 716 -161 79 -259 101 -456 105 -91 2 -186 0 -211
-4z m433 -109 c186 -50 332 -135 469 -271 189 -190 285 -405 296 -670 6 -130
-10 -283 -30 -299 -7 -5 -23 -8 -37 -7 -14 2 -28 4 -32 4 -5 1 -8 86 -8 190 0
175 -1 189 -18 194 -25 6 -32 46 -32 189 0 111 -1 119 -18 114 -14 -5 -22 2
-33 26 -9 21 -24 35 -43 40 -16 4 -25 3 -20 -1 5 -5 17 -11 27 -13 11 -2 27
-25 43 -63 28 -69 27 -65 16 -65 -5 0 -14 17 -20 39 -15 48 -34 64 -72 63 -52
-1 -67 -11 -85 -57 -9 -25 -21 -45 -25 -45 -5 0 -3 15 5 34 13 32 13 34 -5 39
-19 5 -20 0 -20 -114 0 -73 -4 -119 -10 -119 -5 0 -10 -9 -10 -19 0 -10 -7
-21 -15 -25 -11 -4 -15 -20 -15 -56 0 -27 -4 -50 -10 -50 -6 0 -10 -67 -10
-180 0 -180 0 -180 23 -180 12 0 29 -5 37 -11 12 -9 12 -10 -4 -5 -61 20 -293
38 -436 33 -127 -4 -142 -3 -85 5 39 5 134 8 213 5 l142 -4 0 273 0 274 -29 0
c-15 0 -49 3 -73 6 l-45 6 -7 117 c-8 142 -25 274 -36 281 -4 3 -11 20 -15 38
-3 18 -10 30 -15 27 -4 -3 -11 7 -15 23 -5 18 -9 22 -13 12 -8 -23 -31 -42
-42 -35 -6 3 -7 -1 -4 -10 8 -20 -23 -85 -40 -85 -20 0 -26 -22 -33 -137 -3
-57 -10 -106 -15 -109 -4 -3 -8 -108 -8 -235 l0 -229 -50 0 c-48 0 -50 -1 -50
-27 0 -21 -3 -24 -12 -15 -8 8 -14 73 -19 188 -6 159 -9 179 -28 203 -12 14
-26 37 -31 51 -22 54 -24 55 -96 52 -38 -2 -74 -9 -80 -15 -21 -22 -37 -82
-43 -157 l-6 -75 -32 3 c-46 5 -53 -20 -53 -193 l0 -143 -31 -33 c-27 -29 -33
-31 -50 -21 -11 7 -23 10 -28 8 -8 -5 -20 306 -22 568 l-1 151 -26 -92 c-18
-69 -28 -90 -37 -83 -6 5 -15 7 -18 3 -8 -8 -57 36 -57 50 0 6 -25 43 -55 83
-30 40 -55 76 -55 79 0 15 21 1 37 -25 17 -29 19 -30 99 -30 l81 0 13 40 c7
22 10 43 6 47 -4 4 -60 10 -124 14 -64 4 -118 8 -120 8 -9 2 93 123 144 171
145 137 299 218 494 261 116 26 349 21 462 -9z m-45 -314 c-3 -8 -6 -5 -6 6
-1 11 2 17 5 13 3 -3 4 -12 1 -19z m-57 -13 c0 -8 -2 -15 -4 -15 -2 0 -6 7
-10 15 -3 8 -1 15 4 15 6 0 10 -7 10 -15z m-1000 -530 l1 -415 -56 -1 c-30 -1
-61 -2 -67 -3 -21 -2 -46 147 -47 275 -1 130 17 244 56 352 27 78 93 207 104
207 4 0 8 -187 9 -415z m177 -27 c-3 -7 -5 -2 -5 12 0 14 2 19 5 13 2 -7 2
-19 0 -25z m0 -180 c-3 -7 -5 -2 -5 12 0 14 2 19 5 13 2 -7 2 -19 0 -25z m0
-65 c-3 -10 -5 -2 -5 17 0 19 2 27 5 18 2 -10 2 -26 0 -35z m536 -30 c-7 -2
-21 -2 -30 0 -10 3 -4 5 12 5 17 0 24 -2 18 -5z m-63 -13 c11 -7 2 -9 -32 -8
-63 2 -87 18 -28 18 25 0 52 -5 60 -10z m87 -6 c-3 -3 -12 -4 -19 -1 -8 3 -5
6 6 6 11 1 17 -2 13 -5z m3 -22 c0 -4 -9 -8 -19 -8 -11 0 -17 4 -15 8 3 4 12
8 20 8 8 0 14 -4 14 -8z m-120 -6 c0 -2 -13 -6 -30 -8 -16 -3 -30 -1 -30 4 0
4 14 8 30 8 17 0 30 -2 30 -4z m1050 -15 c0 -5 -10 -11 -22 -14 -22 -6 -22 -6
-4 8 23 17 26 18 26 6z m-1220 -28 c0 -22 2 -25 10 -13 6 9 10 10 10 3 0 -8
21 -13 58 -15 l57 -3 5 -45 5 -45 52 -1 c60 -1 72 -8 57 -31 -16 -25 -34 -27
-34 -4 0 19 -6 21 -54 21 -45 0 -54 -3 -59 -20 -6 -23 -37 -17 -37 6 0 8 -4
14 -10 14 -9 0 -14 -14 -11 -32 0 -5 -5 -8 -13 -8 -9 0 -12 7 -9 20 6 22 -12
28 -20 8 -3 -7 -6 4 -6 25 -1 20 -6 37 -12 37 -8 0 -9 -11 -5 -31 3 -18 1 -38
-5 -45 -13 -16 -69 -19 -69 -4 0 5 7 7 15 4 9 -4 15 0 15 10 0 9 -6 16 -12 17
-10 0 -10 2 0 6 18 7 15 41 -5 46 -14 4 -12 5 5 6 15 1 22 7 22 21 0 16 -7 20
-32 21 -18 0 -27 3 -20 6 6 2 12 16 12 29 0 22 4 24 45 24 42 0 45 -2 45 -27z
m1163 -1 c21 0 41 -3 44 -6 4 -3 -19 -6 -50 -6 -36 0 -61 -5 -71 -15 -18 -18
-26 -19 -26 -2 0 14 53 47 60 36 3 -4 22 -7 43 -7z m-228 -71 c26 -6 -48 -9
-207 -10 -160 -1 -248 3 -248 9 0 12 396 13 455 1z m-1085 -36 c0 -9 9 -15 23
-15 20 -1 21 -2 5 -14 -10 -7 -15 -16 -11 -19 3 -4 -14 -7 -38 -7 -35 1 -40 3
-26 11 9 5 17 21 17 34 0 16 6 25 15 25 8 0 15 -7 15 -15z m740 5 c0 -5 -8 -7
-17 -4 -15 5 -15 3 2 -10 21 -17 42 -16 38 3 -4 15 6 14 23 -3 10 -11 49 -14
170 -15 86 0 159 -3 162 -6 3 -3 -25 -5 -61 -5 -53 0 -67 -3 -67 -15 0 -13
-23 -15 -144 -15 -119 0 -145 3 -150 15 -4 10 -22 16 -58 17 -43 1 -46 2 -15
5 29 3 37 9 37 24 0 16 7 19 40 19 22 0 40 -4 40 -10z m-985 -30 c4 -6 15 -8
26 -5 13 4 17 2 14 -7 -6 -15 -175 -21 -175 -6 0 4 9 8 20 8 11 0 20 5 20 10
0 13 87 13 95 0z m508 -271 c35 -9 38 -13 35 -41 -3 -28 -9 -33 -53 -49 l-50
-17 58 -1 c50 -1 57 -3 57 -21 0 -18 -7 -20 -75 -20 -90 0 -97 14 -32 57 45
31 59 74 25 81 -13 2 -18 -3 -18 -18 0 -24 -28 -39 -40 -20 -11 18 -3 36 23
48 28 14 26 14 70 1z m255 -26 c47 -52 9 -123 -68 -123 -49 0 -80 27 -80 69 0
45 10 62 44 76 39 17 75 10 104 -22z m162 -38 c0 -50 4 -66 18 -74 13 -8 3
-10 -43 -10 -46 0 -56 2 -42 10 12 7 17 23 17 59 0 41 -3 50 -17 50 -12 1 -7
6 12 15 52 23 55 21 55 -50z m214 43 c21 -30 6 -53 -46 -71 l-43 -15 53 -1
c45 -1 52 -4 52 -21 0 -18 -7 -20 -75 -20 -91 0 -99 15 -29 56 38 22 45 31 42
53 -4 32 -38 43 -38 11 0 -25 -29 -39 -41 -19 -27 44 95 71 125 27z"/>
<path d="M2436 2241 c-4 -5 3 -7 14 -4 23 6 26 13 6 13 -8 0 -17 -4 -20 -9z"/>
<path d="M1011 2166 c2 -2 29 -6 59 -9 34 -3 47 -2 35 3 -19 8 -103 14 -94 6z"/>
<path d="M1320 1440 c0 -13 7 -20 20 -20 13 0 20 7 20 20 0 13 -7 20 -20 20
-13 0 -20 -7 -20 -20z"/>
<path d="M1370 1440 c0 -13 7 -20 20 -20 13 0 20 7 20 20 0 13 -7 20 -20 20
-13 0 -20 -7 -20 -20z"/>
<path d="M1420 1440 c0 -11 7 -20 15 -20 8 0 15 9 15 20 0 11 -7 20 -15 20 -8
0 -15 -9 -15 -20z"/>
<path d="M1310 1390 c0 -11 5 -20 10 -20 6 0 10 9 10 20 0 11 -4 20 -10 20 -5
0 -10 -9 -10 -20z"/>
<path d="M1370 1390 c0 -11 5 -20 10 -20 6 0 10 9 10 20 0 11 -4 20 -10 20 -5
0 -10 -9 -10 -20z"/>
<path d="M1410 1390 c0 -11 5 -20 10 -20 6 0 10 9 10 20 0 11 -4 20 -10 20 -5
0 -10 -9 -10 -20z"/>
<path d="M1636 1065 c-11 -31 -6 -92 9 -105 33 -28 57 17 45 85 -6 34 -43 48
-54 20z"/>
<path d="M883 2820 c-38 -34 -40 -40 -15 -34 11 2 33 -16 66 -56 42 -53 46
-63 35 -78 -13 -16 -12 -16 6 -2 67 49 77 60 57 60 -26 0 -116 104 -108 125 8
23 -5 18 -41 -15z"/>
<path d="M771 2718 c-24 -30 -24 -30 -3 -24 16 5 30 -2 59 -28 l38 -36 -78 7
c-72 6 -79 4 -102 -17 -30 -28 -32 -40 -6 -33 14 3 35 -9 70 -42 28 -26 51
-51 51 -55 0 -4 -8 -17 -17 -29 -18 -21 -19 -21 -112 -6 -71 12 -96 13 -102 4
-4 -7 18 -45 52 -91 34 -46 56 -85 53 -93 -11 -27 4 -15 25 20 l20 35 -23 -6
c-29 -7 -40 16 -24 51 8 18 19 25 41 25 22 0 28 -4 23 -15 -12 -33 11 -12 36
33 14 26 38 58 52 71 32 30 33 40 3 34 -15 -3 -34 7 -62 31 l-40 36 95 -1 c57
-1 95 2 97 8 2 6 -24 35 -57 64 -43 37 -60 58 -57 71 7 26 -5 21 -32 -14z
m-103 -314 c2 -1 -2 -12 -8 -24 l-11 -21 -20 25 c-10 13 -19 27 -19 30 0 6 50
-3 58 -10z"/>
<path d="M2686 2649 c-44 -17 -85 -28 -93 -25 -21 9 -15 -9 13 -35 26 -23 26
-23 20 -2 -10 33 29 41 59 13 20 -19 22 -26 13 -46 -7 -14 -17 -23 -25 -20
-20 8 -1 -23 32 -54 26 -24 27 -24 21 -3 -5 15 5 46 34 103 39 77 43 101 17
99 -7 0 -48 -14 -91 -30z m54 -6 c-1 -5 -6 -18 -13 -31 l-13 -23 -18 20 c-18
20 -18 21 5 30 30 12 39 13 39 4z"/>
<path d="M2890 2535 c0 -27 -119 -99 -145 -89 -15 6 -14 1 6 -34 13 -23 28
-42 32 -42 5 0 6 4 2 9 -3 5 8 19 25 31 36 25 40 12 13 -44 -13 -29 -14 -39
-3 -65 13 -33 30 -41 30 -15 0 33 24 95 34 90 6 -2 18 -7 27 -10 9 -4 26 1 39
12 21 17 22 22 12 48 -25 59 -72 130 -72 109z m39 -106 c-11 -21 -54 -26 -65
-7 -4 6 5 21 22 35 26 21 30 21 41 7 9 -12 9 -22 2 -35z"/>
<path d="M478 2274 c-27 -54 -23 -100 11 -135 56 -55 148 -30 167 45 7 28 -12
86 -28 86 -5 0 -4 -9 2 -19 14 -26 13 -64 -2 -79 -17 -17 -73 -15 -108 3 -70
36 -55 104 23 105 17 1 19 2 7 9 -41 24 -55 21 -72 -15z"/>
<path d="M2957 2282 c-9 -9 -17 -40 -19 -67 -3 -46 -5 -50 -28 -50 -20 0 -26
6 -28 28 -2 16 4 39 13 53 16 25 7 31 -25 14 -10 -5 -17 -18 -15 -27 13 -62
18 -76 35 -93 25 -25 62 -26 83 -2 9 9 17 40 19 67 2 41 6 50 22 50 10 0 24
-8 30 -17 8 -13 5 -24 -12 -48 -24 -32 -12 -42 21 -17 13 10 15 19 8 50 -16
70 -68 99 -104 59z"/>
<path d="M497 1664 c-13 -13 -7 -62 8 -68 21 -8 32 41 13 60 -8 8 -17 11 -21
8z"/>
<path d="M3000 1655 c-17 -20 -5 -66 15 -59 16 7 21 59 6 68 -5 3 -14 -1 -21
-9z"/>
<path d="M432 1628 c4 -40 38 -54 38 -16 0 24 -16 48 -33 48 -4 0 -7 -15 -5
-32z"/>
<path d="M3062 1648 c-7 -7 -12 -23 -12 -36 0 -38 34 -24 38 16 3 33 -6 40
-26 20z"/>
<path d="M544 1605 c-8 -31 10 -55 27 -38 14 14 8 55 -8 60 -7 3 -15 -7 -19
-22z"/>
<path d="M2947 1623 c-11 -10 -8 -51 4 -59 18 -10 32 13 25 40 -6 26 -16 32
-29 19z"/>
<path d="M385 1590 c-9 -14 13 -50 30 -50 18 0 19 14 5 41 -12 21 -25 25 -35
9z"/>
<path d="M3100 1581 c-14 -27 -13 -41 5 -41 17 0 39 36 30 50 -10 16 -23 12
-35 -9z"/>
<path d="M451 1550 c-33 -46 -25 -65 29 -65 83 0 106 32 50 73 -39 29 -52 28
-79 -8z"/>
<path d="M2988 1557 c-52 -43 -30 -72 52 -72 54 0 62 19 29 65 -27 36 -44 37
-81 7z"/>
<path d="M2783 1141 c-49 -63 -50 -115 -1 -156 55 -47 133 -26 159 42 10 26 2
73 -12 73 -5 0 -6 -14 -2 -30 10 -54 -38 -86 -90 -59 -86 44 -91 119 -7 119
l35 0 -25 20 c-31 24 -30 25 -57 -9z"/>
<path d="M619 1101 c-38 -39 -39 -87 -3 -130 19 -23 34 -31 57 -30 l32 0 -34
12 c-44 16 -58 38 -45 74 13 37 96 83 121 67 22 -13 28 -56 13 -84 -13 -24 -7
-25 24 -5 l24 16 -19 39 c-24 50 -54 70 -102 70 -29 0 -46 -7 -68 -29z"/>
<path d="M2664 969 l-29 -31 25 6 c19 5 33 -2 58 -25 19 -17 32 -32 30 -33 -1
-1 -37 1 -78 4 -74 7 -76 6 -105 -23 -28 -27 -29 -29 -6 -22 19 6 32 -2 76
-45 36 -35 51 -58 48 -69 -4 -11 3 -8 20 8 31 28 34 41 10 35 -18 -4 -102 60
-93 70 3 2 43 1 90 -3 47 -5 89 -4 95 1 5 5 -15 33 -52 71 -33 34 -59 68 -56
75 7 19 -1 14 -33 -19z"/>
<path d="M827 971 c3 -13 -11 -32 -51 -65 -30 -26 -60 -45 -66 -41 -23 14 -7
-13 26 -46 29 -27 35 -30 30 -13 -4 14 1 27 19 44 l25 24 30 -29 30 -29 -22
-23 c-13 -14 -30 -22 -40 -20 -27 8 -22 -6 18 -44 20 -18 34 -27 31 -19 -7 21
101 130 122 123 9 -3 0 10 -18 30 -38 41 -52 46 -44 19 2 -10 -5 -26 -16 -37
-21 -18 -22 -18 -46 5 -14 13 -25 29 -25 35 0 21 36 46 56 39 13 -5 8 5 -15
29 -39 41 -52 46 -44 18z"/>
<path d="M1015 723 c-38 -25 -79 -48 -92 -52 l-24 -6 31 -24 c30 -21 32 -22
26 -3 -4 11 -1 24 8 31 12 10 21 9 46 -5 18 -11 28 -24 25 -32 -3 -8 -5 -18
-5 -24 0 -6 -7 -8 -15 -4 -30 11 -14 -12 26 -38 36 -24 40 -25 35 -8 -4 10 1
50 9 88 8 38 17 79 20 90 8 38 -20 34 -90 -13z m28 -47 c-7 -12 -11 -12 -27
-1 -18 14 -18 15 5 34 23 19 24 19 27 1 2 -11 0 -26 -5 -34z"/>
<path d="M2308 693 c-38 -21 -68 -41 -68 -45 0 -4 6 -5 13 -2 16 6 92 -132 77
-141 -5 -3 -10 -10 -10 -14 0 -6 140 60 158 75 2 1 -3 15 -12 31 l-15 28 -1
-27 c0 -30 -40 -64 -64 -55 -8 3 -28 34 -46 68 -30 60 -31 64 -13 77 10 8 30
11 47 8 23 -5 27 -3 22 10 -3 9 -6 18 -6 20 0 9 -18 2 -82 -33z"/>
<path d="M1204 657 c-1 -39 -46 -133 -62 -129 -24 5 -11 -16 16 -26 15 -5 36
-14 47 -18 17 -7 18 -6 7 8 -10 12 -10 21 -1 42 17 36 27 33 35 -11 10 -54 20
-70 54 -81 29 -11 29 -10 16 11 -8 12 -17 38 -21 58 -6 33 -4 37 19 43 27 7
44 45 31 67 -6 9 -125 69 -137 69 -2 0 -3 -15 -4 -33z m86 -22 c24 -29 -8 -75
-44 -62 -15 6 -15 9 1 42 18 39 25 42 43 20z"/>
<path d="M2540 670 c0 -15 7 -20 26 -20 23 0 25 -3 20 -26 -5 -17 -3 -23 4
-19 14 9 13 58 -2 73 -19 19 -48 15 -48 -8z"/>
<path d="M2375 659 c4 -5 -1 -20 -12 -31 -18 -21 -18 -21 4 -16 13 4 26 2 29
-3 3 -5 9 -9 14 -9 6 0 2 16 -7 35 -9 19 -21 35 -25 35 -5 0 -6 -5 -3 -11z"/>
<path d="M2118 614 c-75 -24 -87 -34 -70 -62 6 -9 12 -6 20 13 20 43 39 30 61
-44 25 -81 25 -87 9 -95 -21 -10 39 3 69 15 25 10 26 12 9 18 -28 10 -71 150
-50 158 8 3 23 -2 33 -11 24 -22 29 -20 23 9 -5 30 -7 30 -104 -1z"/>
<path d="M1410 598 c0 -4 5 -8 11 -8 8 0 10 -14 6 -42 -11 -76 -27 -118 -44
-118 -34 0 -2 -12 77 -30 59 -13 82 -15 85 -7 2 7 6 20 9 30 7 22 1 22 -23 -2
-19 -19 -65 -19 -76 0 -11 16 26 149 41 149 33 0 10 17 -36 26 -27 6 -50 7
-50 2z"/>
<path d="M1903 568 c-57 -9 -63 -12 -63 -34 0 -29 16 -32 25 -4 3 11 14 20 24
20 15 0 21 -14 30 -77 8 -53 8 -79 1 -81 -5 -2 -10 -7 -10 -12 0 -4 21 -3 47
1 47 9 69 19 41 19 -20 0 -24 12 -33 93 -7 63 -6 67 13 67 12 0 25 -8 31 -17
12 -23 22 -13 14 15 -6 25 -18 26 -120 10z"/>
<path d="M1643 545 c-60 -42 -46 -142 24 -171 104 -44 193 78 114 157 -24 23
-38 29 -73 29 -24 0 -53 -7 -65 -15z m103 -20 c12 -18 15 -39 12 -70 -6 -53
-22 -75 -54 -75 -30 0 -44 27 -44 82 0 78 51 116 86 63z"/>
</g>
</svg>
