<?xml version="1.0" standalone="no"?>
<!DOCTYPE svg PUBLIC "-//W3C//DTD SVG 20010904//EN"
 "http://www.w3.org/TR/2001/REC-SVG-20010904/DTD/svg10.dtd">
<svg version="1.0" xmlns="http://www.w3.org/2000/svg"
 width="2122.000000pt" height="2122.000000pt" viewBox="0 0 2122.000000 2122.000000"
 preserveAspectRatio="xMidYMid meet">

<g transform="translate(0.000000,2122.000000) scale(0.100000,-0.100000)"
fill="#000000" stroke="none">
<path d="M8520 21205 c-169 -31 -374 -124 -557 -251 -125 -88 -244 -185 -488
-399 -337 -296 -488 -407 -690 -506 -241 -118 -443 -156 -1046 -199 -157 -11
-340 -27 -406 -35 -576 -71 -860 -246 -1147 -705 -36 -58 -151 -274 -256 -480
-262 -519 -350 -659 -515 -825 -166 -165 -306 -253 -825 -515 -498 -252 -643
-344 -815 -515 -209 -209 -318 -470 -370 -888 -8 -67 -24 -250 -35 -407 -66
-918 -133 -1085 -704 -1734 -304 -346 -434 -518 -524 -693 -100 -196 -142
-360 -142 -556 0 -228 43 -415 214 -933 184 -558 210 -677 210 -954 0 -277
-27 -399 -209 -951 -63 -190 -130 -406 -149 -480 -106 -414 -86 -696 72 -1002
93 -182 212 -341 501 -671 312 -356 429 -513 522 -699 123 -245 167 -466 209
-1067 32 -450 56 -615 120 -813 66 -207 149 -346 290 -486 170 -169 327 -267
830 -521 490 -246 638 -339 801 -500 164 -163 260 -315 509 -810 250 -496 351
-658 515 -824 138 -141 280 -227 475 -291 206 -66 391 -94 835 -125 606 -42
812 -83 1065 -210 184 -93 339 -209 705 -529 539 -473 799 -613 1160 -628 245
-10 441 32 968 208 864 288 1069 290 1872 19 330 -111 535 -171 686 -202 94
-19 145 -22 294 -22 161 0 190 3 276 26 291 79 479 202 993 651 402 352 603
484 856 565 192 61 390 89 855 122 160 11 344 27 410 35 582 75 868 252 1154
714 36 58 147 268 247 466 260 516 352 664 519 830 166 167 314 259 830 519
198 100 408 211 466 247 462 285 639 572 714 1154 8 66 24 251 35 410 64 908
131 1074 687 1711 449 514 572 702 651 993 23 87 26 113 26 281 0 165 -3 199
-28 315 -34 158 -88 341 -201 675 -143 423 -195 660 -195 890 0 240 50 458
219 967 176 527 218 723 208 968 -15 361 -155 621 -628 1160 -320 366 -436
521 -529 705 -127 253 -168 459 -210 1065 -31 444 -59 629 -125 835 -64 195
-150 337 -291 475 -166 164 -328 264 -824 515 -493 248 -650 347 -810 509
-162 164 -254 311 -500 801 -254 503 -352 660 -521 830 -140 141 -279 224
-486 290 -198 64 -371 89 -818 120 -917 64 -1074 129 -1761 731 -330 289 -489
408 -671 501 -306 158 -588 178 -1002 72 -74 -19 -290 -86 -480 -149 -552
-182 -674 -209 -951 -209 -277 0 -396 26 -954 210 -383 127 -556 174 -717 198
-128 19 -316 19 -419 1z m2860 -699 c102 -9 266 -25 365 -36 2013 -230 3902
-1074 5435 -2428 301 -266 705 -677 972 -989 1230 -1435 2024 -3197 2287
-5073 62 -440 82 -721 88 -1235 10 -782 -43 -1368 -187 -2085 -350 -1742
-1137 -3312 -2338 -4665 -149 -168 -609 -628 -777 -777 -1542 -1368 -3385
-2207 -5400 -2457 -458 -57 -805 -75 -1350 -68 -702 9 -1210 62 -1873 198
-1616 330 -3174 1095 -4432 2174 -317 272 -725 673 -992 975 -1353 1532 -2195
3417 -2427 5430 -49 429 -56 558 -56 1140 0 582 7 711 56 1140 231 2005 1056
3860 2404 5405 191 218 691 719 910 910 1272 1110 2756 1867 4370 2229 544
122 1011 186 1675 230 30 2 287 2 570 1 371 -2 567 -7 700 -19z"/>
<path d="M10150 20439 c-2462 -120 -4754 -1135 -6494 -2875 -2332 -2332 -3337
-5642 -2696 -8877 250 -1261 738 -2437 1463 -3527 370 -556 736 -1001 1236
-1501 389 -388 670 -633 1068 -931 1930 -1443 4294 -2121 6708 -1923 1340 110
2669 508 3855 1153 1425 774 2635 1885 3532 3240 1377 2081 1904 4585 1488
7065 -300 1783 -1095 3446 -2319 4847 -180 206 -685 710 -893 892 -1112 969
-2378 1663 -3763 2063 -1024 295 -2133 426 -3185 374z m1040 -645 c114 -26
206 -79 295 -169 130 -130 187 -264 188 -440 0 -185 -60 -330 -191 -457 -125
-122 -265 -180 -437 -181 -112 -1 -176 14 -285 65 -69 33 -100 56 -166 123
-127 127 -184 265 -184 445 0 106 18 181 72 290 75 154 232 278 408 324 73 19
219 19 300 0z m-880 -47 c0 -15 -6 -29 -12 -32 -7 -2 -101 -11 -208 -20 -107
-9 -196 -17 -197 -19 -2 -2 17 -246 42 -543 25 -297 45 -550 45 -562 0 -18 -6
-21 -39 -21 l-39 0 -6 53 c-3 28 -24 279 -47 557 -23 278 -43 507 -44 509 -2
1 -94 -5 -205 -14 -111 -9 -203 -15 -205 -14 -2 2 -6 21 -10 42 -6 28 -4 37 6
38 8 0 214 17 459 37 301 26 447 34 452 27 4 -5 8 -23 8 -38z m2020 -607 c55
-300 104 -553 108 -563 6 -14 82 83 346 442 187 254 341 459 343 457 2 -2 1
-285 -3 -630 l-7 -626 -41 0 -41 0 3 503 c2 410 0 499 -10 486 -7 -9 -152
-205 -323 -437 -284 -388 -310 -420 -317 -395 -3 16 -48 254 -99 531 -52 276
-96 502 -100 502 -3 0 -100 -199 -214 -442 -114 -244 -209 -445 -211 -447 -7
-7 -75 28 -71 37 2 4 122 260 267 570 145 309 265 561 266 559 2 -1 48 -248
104 -547z m-3385 490 c74 -11 152 -43 198 -82 l28 -23 -29 -28 -29 -28 -38 25
c-53 37 -127 56 -209 56 -237 -1 -395 -140 -356 -314 15 -68 44 -104 107 -133
45 -21 68 -24 146 -24 50 1 110 5 132 11 72 17 216 12 290 -11 85 -26 162 -97
188 -173 85 -249 -128 -496 -443 -513 -142 -8 -278 34 -357 110 l-33 31 22 23
c12 13 25 23 30 23 5 0 31 -16 59 -35 188 -129 499 -72 618 114 27 42 35 65
38 119 4 60 2 73 -24 122 -24 45 -38 60 -83 82 -77 39 -153 45 -310 23 -110
-16 -141 -17 -205 -7 -129 20 -207 77 -245 179 -78 208 76 414 340 452 77 12
86 12 165 1z m-862 -593 c75 -210 142 -406 148 -436 50 -240 -89 -435 -371
-522 -112 -35 -244 -34 -323 3 -32 15 -77 42 -98 59 -48 38 -111 128 -140 201
-23 59 -269 737 -269 743 0 5 71 28 75 23 2 -1 63 -167 135 -368 73 -201 143
-387 157 -414 35 -70 105 -140 166 -167 111 -49 305 -16 439 74 117 78 166
178 154 310 -5 53 -37 155 -143 445 -74 207 -138 382 -140 389 -4 10 43 39 67
42 3 0 67 -171 143 -382z m6460 -129 c188 -95 207 -107 277 -178 122 -122 180
-257 180 -420 0 -271 -196 -527 -456 -595 -80 -21 -205 -19 -296 4 -81 21
-458 203 -458 222 0 17 534 1068 543 1069 5 0 99 -46 210 -102z m-7883 -123
c76 -8 82 -13 69 -58 -9 -35 -11 -36 -42 -29 -66 15 -229 8 -292 -13 -80 -26
-197 -106 -247 -169 -245 -308 -112 -749 261 -866 86 -27 226 -27 312 0 69 21
167 75 213 118 49 46 113 138 132 191 18 52 26 57 72 45 31 -9 28 -30 -17
-120 -28 -55 -60 -100 -107 -147 -82 -82 -153 -127 -256 -161 -65 -22 -94 -26
-195 -26 -104 0 -128 4 -201 29 -429 149 -562 688 -252 1014 76 80 147 128
248 164 68 25 176 43 222 37 14 -1 50 -5 80 -9z m9136 -596 c145 -100 264
-186 264 -191 0 -14 -31 -58 -42 -58 -5 0 -111 70 -236 156 -125 86 -231 158
-237 160 -13 4 -257 -354 -250 -366 3 -5 105 -77 228 -161 122 -84 224 -153
226 -155 2 -2 -7 -19 -19 -38 l-21 -36 -62 42 c-34 23 -140 95 -235 161 -95
65 -175 117 -177 116 -4 -5 -269 -391 -278 -406 -5 -7 70 -65 215 -164 284
-194 262 -174 236 -210 -12 -16 -26 -29 -30 -29 -19 0 -533 362 -533 376 0 19
663 984 676 984 6 0 129 -82 275 -181z m-4741 -249 c2180 -140 4133 -1197
5445 -2945 784 -1046 1279 -2317 1414 -3635 41 -400 46 -1011 11 -1390 -194
-2107 -1234 -3973 -2920 -5240 -991 -745 -2169 -1228 -3396 -1394 -556 -76
-1201 -87 -1749 -30 -1967 202 -3757 1181 -4997 2734 -817 1024 -1348 2261
-1528 3565 -52 378 -69 687 -62 1130 6 351 11 432 42 720 139 1258 644 2528
1412 3550 826 1098 1909 1927 3180 2434 722 288 1472 452 2308 504 128 8 697
6 840 -3z m-5986 -274 c119 -61 212 -200 219 -329 6 -90 -11 -161 -52 -230
l-34 -56 47 -10 c25 -5 140 -29 254 -53 l208 -43 -6 -35 c-4 -19 -10 -38 -13
-41 -4 -4 -128 20 -277 52 -148 32 -274 58 -280 58 -7 1 -169 -130 -201 -162
-3 -2 58 -78 135 -168 l140 -164 -29 -30 c-19 -18 -33 -26 -39 -20 -5 6 -182
214 -395 462 l-386 453 150 127 c151 129 251 194 325 212 71 18 174 7 234 -23z
m11413 -57 c191 -40 377 -243 395 -431 7 -75 1 -82 -53 -72 -32 6 -35 9 -31
32 9 45 -22 134 -69 204 -130 192 -349 246 -471 117 -98 -104 -66 -224 106
-399 110 -113 153 -178 177 -269 35 -137 -28 -270 -161 -339 -71 -37 -197 -43
-292 -14 -140 43 -277 164 -342 302 -31 66 -35 87 -39 174 l-4 98 33 -7 c49
-11 49 -11 49 -74 0 -222 214 -432 439 -431 77 0 131 21 179 70 47 47 63 85
63 147 0 87 -43 164 -165 292 -113 119 -149 172 -171 258 -39 148 63 300 230
343 44 12 68 11 127 -1z m-12104 -823 c169 -150 321 -293 338 -317 109 -153
119 -283 38 -449 -51 -102 -180 -233 -279 -281 -66 -32 -75 -34 -176 -34 -105
0 -108 1 -184 40 -60 32 -140 97 -386 314 -289 257 -308 276 -296 295 33 49
31 51 328 -214 156 -139 304 -268 329 -286 177 -132 383 -85 540 124 128 170
126 331 -7 473 -26 28 -175 164 -330 302 l-283 251 27 28 c15 15 28 28 30 28
2 0 142 -123 311 -274z m12939 92 c13 -12 23 -25 23 -29 0 -4 -172 -169 -382
-365 -211 -197 -409 -382 -440 -413 l-58 -55 -25 24 c-14 13 -24 30 -23 37 3
12 866 823 876 823 3 0 16 -10 29 -22z m278 -493 c332 -84 540 -409 471 -736
-13 -62 -53 -169 -63 -169 -2 0 -19 6 -38 14 l-35 15 19 43 c31 73 45 149 44
239 -3 249 -181 462 -428 514 -38 8 -88 15 -110 15 -65 0 -176 -28 -243 -61
-74 -36 -168 -120 -212 -189 -106 -165 -113 -391 -19 -557 66 -116 174 -206
303 -251 90 -32 229 -35 319 -6 l58 19 -162 214 -162 214 29 24 c16 12 32 23
35 23 8 0 379 -494 379 -504 0 -14 -128 -67 -196 -81 -137 -29 -273 -10 -412
56 -239 115 -379 396 -333 664 42 241 231 441 471 500 75 18 213 18 285 0z
m-14037 -588 c102 -35 174 -81 252 -159 119 -119 180 -271 180 -444 0 -304
-206 -557 -503 -618 -97 -20 -169 -20 -260 0 -298 67 -499 318 -499 624 0 291
196 537 487 612 99 25 244 19 343 -15z m14977 -504 c-50 -127 -485 -1309 -483
-1314 2 -4 205 98 453 227 247 129 452 234 455 234 11 0 41 -63 33 -71 -10 -9
-1086 -569 -1094 -569 -3 0 105 300 241 668 137 367 247 668 245 670 -3 3
-659 -335 -842 -434 l-63 -34 -19 38 -19 38 541 282 c298 155 546 282 551 282
4 0 5 -8 1 -17z m-15860 -847 l220 -365 217 -97 c139 -61 218 -102 218 -111 0
-12 -16 -50 -26 -61 -1 -2 -100 39 -218 92 -119 53 -224 96 -234 96 -9 0 -199
-35 -422 -78 -439 -85 -418 -84 -419 -22 l-1 25 383 74 c210 40 386 77 391 81
4 5 -82 159 -193 343 -111 184 -201 340 -201 346 0 9 45 39 60 41 3 0 104
-164 225 -364z m-430 -4016 l-180 -180 -180 180 -180 180 180 180 180 180 180
-180 180 -180 -180 -180z m17160 0 l-180 -180 -180 180 -180 180 180 180 180
180 180 -180 180 -180 -180 -180z m-16215 -3186 c212 -54 404 -250 455 -465
21 -90 19 -210 -5 -303 -20 -81 -84 -214 -106 -223 -7 -3 -27 5 -43 16 l-29
21 34 58 c167 276 60 638 -229 776 -274 131 -599 19 -731 -250 -85 -173 -73
-379 31 -543 106 -166 309 -265 507 -247 38 4 72 8 74 10 2 3 -52 109 -120
237 -68 128 -124 236 -126 241 -4 8 65 44 72 37 14 -14 297 -561 293 -565 -17
-18 -160 -44 -236 -44 -181 0 -321 58 -447 184 -134 133 -189 265 -188 451 1
93 5 122 28 190 112 326 434 502 766 419z m14740 -203 c0 -39 -1 -40 -52 -55
-138 -41 -267 -217 -276 -376 -3 -68 -1 -80 25 -129 39 -74 96 -113 172 -119
105 -8 184 53 281 213 145 242 322 332 492 251 194 -92 250 -339 133 -584 -68
-143 -231 -273 -363 -289 l-52 -6 0 40 c0 39 1 41 38 47 136 21 278 157 332
317 29 84 25 222 -8 285 -61 118 -191 165 -301 110 -57 -29 -143 -120 -191
-202 -104 -179 -224 -274 -346 -274 -52 0 -124 28 -181 71 -76 57 -117 143
-117 247 1 138 63 273 176 378 70 67 155 111 216 113 19 1 22 -4 22 -38z
m-144 -1147 c275 -206 500 -378 502 -382 1 -4 -321 -36 -715 -71 -395 -35
-719 -65 -721 -66 -2 -2 181 -142 407 -312 225 -169 410 -312 411 -316 0 -4
-10 -21 -21 -37 l-21 -28 -502 376 -501 377 40 7 c22 4 346 35 719 68 374 33
681 62 683 64 2 2 -183 143 -412 315 -228 171 -415 314 -415 317 0 7 40 64 45
64 1 0 227 -169 501 -376z m-13700 171 c129 -177 168 -251 184 -348 31 -196
-108 -375 -323 -418 -101 -21 -231 15 -316 86 -22 20 -32 23 -36 13 -2 -7 -25
-85 -50 -173 -26 -88 -58 -197 -71 -243 l-25 -83 -32 6 c-18 4 -35 10 -39 14
-4 3 29 129 73 280 44 151 77 281 74 289 -9 25 -140 201 -149 201 -5 1 -83
-53 -174 -120 -91 -66 -170 -123 -176 -125 -9 -4 -45 38 -49 58 -2 8 975 728
985 725 4 -1 60 -74 124 -162z m665 -822 c101 -109 204 -219 228 -246 l44 -47
-24 -26 c-12 -13 -28 -23 -35 -22 -6 2 -97 95 -202 208 -106 113 -196 206
-201 208 -9 3 -331 -295 -331 -307 0 -4 77 -90 171 -192 95 -101 181 -194 192
-206 l20 -23 -23 -25 c-13 -14 -27 -25 -31 -25 -4 0 -94 92 -200 205 -106 113
-196 204 -201 203 -13 -5 -368 -339 -368 -347 0 -7 167 -190 364 -399 l30 -32
-29 -29 -30 -30 -229 246 -229 245 39 39 c76 76 849 798 855 798 3 1 89 -88
190 -196z m11948 -218 c52 -16 53 -17 47 -48 -4 -17 -10 -35 -14 -39 -4 -4
-34 0 -67 9 -86 23 -223 20 -305 -6 -362 -115 -505 -538 -285 -846 105 -148
258 -225 447 -226 154 -1 278 51 389 162 149 148 199 375 126 572 -14 38 -28
71 -31 74 -3 3 -91 -77 -197 -178 -105 -101 -194 -185 -198 -187 -4 -1 -19 10
-34 26 l-27 28 178 170 c97 93 203 193 234 223 l57 53 36 -57 c197 -308 87
-729 -237 -900 -363 -192 -808 6 -913 405 -23 85 -23 226 -1 310 58 225 232
399 458 460 88 24 252 22 337 -5z m-11287 -1188 l-177 -659 -34 6 c-19 3 -37
9 -41 13 -4 4 23 119 60 255 l67 246 -214 176 -213 175 -232 -115 -232 -115
-19 37 c-10 20 -17 37 -15 39 6 7 1222 604 1224 602 1 -1 -77 -298 -174 -660z
m10475 17 l372 -479 -27 -22 c-15 -12 -31 -22 -37 -22 -5 0 -178 217 -383 482
l-373 482 28 22 c15 13 33 21 38 20 6 -2 177 -219 382 -483z m-9595 85 c205
-133 379 -247 387 -254 11 -11 10 -18 -5 -44 -10 -17 -22 -31 -26 -31 -4 0
-84 50 -178 110 -93 61 -173 110 -177 110 -6 -1 -384 -582 -614 -943 -10 -14
-81 31 -72 46 4 7 143 223 310 481 167 258 302 470 301 471 -108 67 -340 220
-344 226 -6 10 26 69 37 69 4 0 175 -109 381 -241z m8970 41 c26 -12 26 -13
10 -47 -16 -33 -18 -34 -52 -26 -54 12 -142 7 -201 -12 -208 -67 -331 -243
-274 -390 36 -94 92 -135 188 -135 75 0 132 20 245 83 131 75 208 100 302 101
95 0 162 -28 223 -93 134 -144 110 -367 -58 -534 -73 -74 -193 -139 -292 -158
-83 -15 -206 -7 -261 17 l-42 19 20 34 c17 27 25 32 43 26 77 -24 123 -28 196
-17 192 30 357 175 391 347 15 71 5 117 -39 186 -75 120 -231 119 -441 -2
-258 -148 -448 -126 -539 64 -40 84 -46 132 -26 208 38 152 181 282 366 334
63 17 200 15 241 -5z m-937 -441 c9 -17 15 -35 13 -41 -2 -5 -120 -65 -263
-133 -143 -68 -259 -128 -258 -132 4 -20 188 -403 194 -403 3 0 120 54 258
120 139 66 256 118 261 115 9 -6 34 -64 29 -69 -2 -2 -114 -56 -249 -120 -135
-64 -249 -121 -254 -126 -5 -5 36 -103 99 -237 60 -125 109 -229 110 -230 1
-2 119 53 264 122 144 69 265 125 270 125 4 0 15 -16 24 -35 15 -32 15 -35 -1
-44 -57 -30 -595 -282 -597 -279 -17 19 -523 1104 -517 1109 5 6 589 286 599
288 1 1 10 -13 18 -30z m-6969 -193 c2 -6 -93 -245 -211 -531 -118 -286 -211
-523 -207 -526 4 -4 128 -57 276 -118 148 -61 271 -113 273 -115 2 -2 -3 -20
-11 -40 -13 -32 -18 -35 -38 -27 -42 16 -613 253 -615 255 -2 2 351 863 450
1098 15 36 17 37 47 26 17 -6 33 -16 36 -22z m5954 -331 c98 -26 180 -75 261
-156 122 -120 179 -262 179 -441 0 -176 -50 -298 -169 -418 -98 -98 -168 -134
-419 -215 -108 -35 -197 -63 -198 -62 -12 13 -374 1161 -367 1167 12 12 388
129 447 140 65 11 195 4 266 -15z m-4702 -71 c192 -39 365 -172 449 -344 52
-108 67 -172 67 -285 0 -112 -15 -176 -66 -285 -57 -119 -167 -229 -288 -289
-141 -69 -269 -86 -417 -55 -196 40 -357 163 -443 339 -52 105 -70 179 -70
290 0 170 64 328 179 444 161 163 372 230 589 185z m2887 -229 c178 -37 353
-171 434 -333 52 -104 71 -182 71 -301 0 -180 -56 -318 -184 -446 -84 -85
-156 -130 -276 -171 -83 -28 -280 -27 -375 3 -309 98 -503 421 -441 734 40
199 166 369 340 455 145 71 283 90 431 59z m-1422 -29 c159 -50 308 -174 380
-312 20 -40 37 -75 37 -78 0 -6 -55 -36 -67 -36 -4 0 -21 28 -38 63 -41 85
-158 202 -245 244 -218 104 -457 66 -626 -102 -115 -114 -164 -229 -164 -391
0 -145 46 -264 142 -369 92 -101 196 -155 332 -174 189 -27 391 55 503 203 46
62 89 143 80 153 -3 3 -125 14 -271 26 l-266 21 0 38 c0 20 4 39 9 42 8 5 633
-43 639 -49 2 -2 -4 -29 -13 -61 -55 -190 -197 -346 -384 -422 -169 -69 -394
-49 -558 50 -77 46 -192 171 -231 251 -70 142 -89 298 -53 439 60 233 230 405
465 469 84 23 249 20 329 -5z"/>
<path d="M10910 19714 c-202 -53 -368 -224 -409 -422 -55 -266 99 -541 354
-634 73 -26 227 -36 306 -19 95 21 195 77 268 150 112 112 161 232 161 394 0
305 -248 548 -555 546 -38 0 -95 -7 -125 -15z"/>
<path d="M14131 18439 c-129 -254 -229 -464 -225 -469 5 -4 77 -42 159 -84
197 -101 290 -121 431 -95 274 50 473 353 410 623 -31 133 -117 254 -230 328
-62 40 -288 158 -303 158 -5 0 -114 -207 -242 -461z"/>
<path d="M10210 17774 c-703 -48 -1292 -163 -1910 -373 -2095 -710 -3771
-2386 -4481 -4481 -147 -431 -245 -840 -308 -1286 -57 -398 -65 -526 -65
-1024 0 -488 8 -620 60 -993 216 -1541 919 -2955 2019 -4062 1170 -1177 2702
-1910 4345 -2079 511 -53 1150 -46 1655 19 806 104 1588 344 2310 710 1375
696 2484 1805 3180 3180 365 721 606 1507 710 2310 65 506 72 1144 19 1655
-218 2119 -1373 4032 -3151 5223 -1002 671 -2106 1062 -3338 1183 -151 15
-901 28 -1045 18z m730 -164 c1927 -99 3665 -941 4946 -2395 946 -1075 1545
-2449 1694 -3885 124 -1205 -63 -2403 -550 -3525 -84 -193 -281 -576 -390
-759 -694 -1160 -1682 -2085 -2867 -2684 -600 -303 -1159 -497 -1803 -626
-1460 -292 -2965 -106 -4342 535 -1451 676 -2680 1906 -3362 3366 -637 1362
-820 2863 -530 4335 391 1986 1646 3722 3424 4735 1140 649 2480 970 3780 903z"/>
<path d="M10512 17414 c-116 -58 -156 -203 -87 -319 85 -146 313 -135 389 17
46 92 31 186 -43 259 -73 74 -167 89 -259 43z"/>
<path d="M7236 16546 c-139 -52 -195 -205 -122 -331 44 -74 147 -123 231 -110
167 24 252 247 143 371 -61 70 -171 100 -252 70z"/>
<path d="M13860 16551 c-74 -24 -114 -59 -150 -130 -33 -66 -26 -164 16 -223
115 -164 378 -106 410 90 15 97 -29 197 -106 241 -44 24 -129 36 -170 22z"/>
<path d="M9872 14520 c-112 -30 -187 -74 -277 -165 -123 -124 -175 -249 -175
-425 0 -176 52 -301 175 -425 91 -92 165 -136 281 -165 209 -54 421 5 574 159
87 88 132 165 160 277 38 147 18 314 -52 447 -48 91 -165 205 -258 250 -135
67 -288 83 -428 47z m273 -75 c212 -54 373 -230 406 -442 23 -157 -35 -328
-153 -445 -210 -210 -539 -209 -749 1 -215 215 -207 556 17 760 129 118 317
167 479 126z"/>
<path d="M8397 14512 c-15 -9 -27 -20 -27 -24 0 -5 106 -160 235 -345 l235
-336 0 -229 0 -228 35 0 35 0 0 233 1 232 234 335 234 335 -27 22 c-15 13 -29
23 -32 23 -3 -1 -104 -142 -224 -315 -121 -173 -222 -315 -225 -314 -3 0 -103
140 -221 310 -118 171 -217 312 -220 314 -3 2 -18 -4 -33 -13z"/>
<path d="M10850 14097 c0 -447 3 -483 56 -572 31 -53 98 -116 154 -145 131
-67 372 -65 509 5 102 51 169 145 197 274 10 50 14 160 14 459 l0 392 -40 0
-39 0 -3 -422 -3 -423 -29 -62 c-36 -78 -94 -133 -172 -164 -51 -20 -77 -23
-184 -23 -105 0 -134 4 -181 22 -107 42 -173 122 -198 240 -7 34 -11 192 -11
442 l0 390 -35 0 -35 0 0 -413z"/>
<path d="M12040 13931 l0 -581 40 0 40 0 0 210 0 210 128 0 127 0 168 -220
c177 -231 178 -232 216 -186 11 13 -10 45 -131 203 -79 103 -147 193 -151 199
-4 8 12 18 46 29 165 53 256 180 257 356 0 137 -39 220 -134 282 -96 64 -127
70 -378 75 l-228 4 0 -581z m494 473 c27 -10 71 -39 98 -62 38 -35 51 -56 64
-100 43 -148 -24 -295 -165 -361 -53 -24 -66 -26 -233 -29 l-178 -4 0 292 0
292 183 -4 c147 -4 191 -9 231 -24z"/>
<path d="M4810 14129 c-47 -19 -90 -61 -116 -111 -22 -44 -25 -61 -22 -119 5
-89 39 -142 117 -181 119 -61 254 -19 307 96 74 159 -31 327 -203 325 -32 0
-69 -5 -83 -10z"/>
<path d="M16268 14130 c-104 -31 -178 -144 -164 -248 13 -92 80 -166 177 -192
116 -32 235 44 269 171 43 160 -122 317 -282 269z"/>
<path d="M5440 12530 l0 -40 5170 0 5170 0 0 40 0 40 -5170 0 -5170 0 0 -40z"/>
<path d="M13033 11909 c-11 -24 -250 -553 -532 -1175 -281 -623 -511 -1135
-511 -1138 0 -7 131 -69 135 -64 1 2 91 201 201 443 l200 440 525 3 525 2 198
-437 c109 -241 202 -442 206 -446 10 -11 142 55 136 68 -2 5 -237 523 -521
1150 -285 627 -523 1153 -530 1169 l-13 29 -19 -44z m257 -859 c111 -245 204
-453 207 -462 5 -17 -21 -18 -447 -18 -358 0 -451 3 -447 13 4 9 263 581 424
937 l25 55 18 -40 c10 -22 109 -240 220 -485z"/>
<path d="M6448 11904 c-112 -17 -248 -63 -361 -121 -574 -297 -807 -1005 -523
-1589 213 -434 657 -697 1135 -671 170 9 320 47 456 115 274 136 482 358 592
630 34 83 83 272 83 320 l0 22 -605 0 -605 0 0 -75 0 -75 515 0 c283 0 515 -1
515 -3 0 -17 -58 -166 -86 -222 -226 -444 -755 -667 -1229 -518 -231 73 -429
221 -562 421 -239 357 -239 807 0 1164 205 308 559 486 922 465 356 -21 678
-224 858 -540 l43 -75 67 35 67 36 -37 69 c-241 445 -741 691 -1245 612z"/>
<path d="M8290 10721 l0 -1161 75 0 75 0 0 420 0 420 254 0 254 0 338 -442
c185 -244 338 -445 340 -447 1 -2 30 18 64 44 l60 46 -108 142 c-59 78 -199
262 -310 408 l-202 267 72 18 c90 21 224 88 300 149 196 154 298 434 258 706
-41 283 -224 472 -537 556 -97 26 -102 27 -515 31 l-418 4 0 -1161z m780 999
c178 -22 306 -77 407 -176 75 -74 117 -156 134 -264 22 -146 -12 -331 -81
-440 -41 -64 -135 -153 -205 -195 -33 -20 -96 -48 -140 -62 -79 -27 -83 -27
-412 -31 l-333 -3 0 590 0 591 273 0 c150 0 311 -5 357 -10z"/>
<path d="M10280 10720 l0 -1160 635 0 635 0 0 75 0 75 -560 0 -560 0 0 495 0
495 545 0 545 0 0 75 0 75 -545 0 -545 0 0 440 0 440 560 0 560 0 0 75 0 75
-635 0 -635 0 0 -1160z"/>
<path d="M14010 11805 l0 -75 405 0 405 0 0 -1085 0 -1085 75 0 75 0 0 1085 0
1085 405 0 405 0 0 75 0 75 -885 0 -885 0 0 -75z"/>
<path d="M3925 10825 c-51 -18 -120 -91 -134 -141 -26 -93 -7 -171 58 -235
101 -102 263 -88 340 28 125 188 -53 423 -264 348z"/>
<path d="M17122 10819 c-170 -85 -176 -330 -9 -414 91 -45 185 -29 258 44 72
72 89 164 45 257 -53 115 -187 166 -294 113z"/>
<path d="M5440 8640 l0 -40 5170 0 5170 0 0 40 0 40 -5170 0 -5170 0 0 -40z"/>
<path d="M9532 7890 c-112 -30 -187 -74 -277 -165 -123 -124 -175 -249 -175
-425 0 -176 52 -301 175 -425 91 -92 165 -136 281 -165 141 -36 289 -20 424
47 93 45 210 159 258 250 94 178 94 408 0 586 -48 91 -165 205 -258 250 -135
67 -288 83 -428 47z m273 -75 c212 -54 373 -230 406 -442 23 -157 -35 -328
-153 -445 -210 -210 -539 -209 -749 1 -215 215 -207 556 17 760 129 118 317
167 479 126z"/>
<path d="M12252 7890 c-112 -30 -187 -74 -277 -165 -123 -124 -175 -249 -175
-425 0 -176 52 -301 175 -425 91 -92 165 -136 281 -165 209 -54 421 5 574 159
87 88 132 165 160 277 38 147 18 314 -52 447 -48 91 -165 205 -258 250 -135
67 -288 83 -428 47z m273 -75 c212 -54 373 -230 406 -442 23 -157 -35 -328
-153 -445 -210 -210 -539 -209 -749 1 -215 215 -207 556 17 760 129 118 317
167 479 126z"/>
<path d="M10930 7894 c-244 -47 -434 -231 -485 -470 -68 -320 137 -643 452
-709 338 -72 659 145 721 486 l9 49 -303 0 -304 0 0 -40 0 -40 255 0 c211 0
255 -2 255 -14 0 -7 -18 -50 -40 -94 -157 -314 -581 -377 -830 -123 -104 105
-150 216 -150 361 0 145 46 256 150 361 235 240 618 201 805 -81 l47 -70 29
17 c16 10 29 21 29 26 0 19 -91 146 -130 181 -117 105 -242 157 -390 162 -52
1 -106 0 -120 -2z"/>
<path d="M8270 7300 l0 -580 325 0 325 0 0 40 0 40 -290 0 -290 0 0 540 0 540
-35 0 -35 0 0 -580z"/>
<path d="M4819 7526 c-57 -20 -93 -51 -122 -104 -67 -124 -37 -240 82 -310 84
-50 213 -31 277 40 66 72 80 188 32 269 -30 50 -84 91 -144 108 -50 14 -80 13
-125 -3z"/>
<path d="M16240 7519 c-174 -70 -185 -330 -17 -414 116 -57 246 -15 303 97 22
44 25 61 22 119 -3 56 -9 76 -34 111 -43 62 -113 98 -189 97 -33 0 -71 -5 -85
-10z"/>
<path d="M7234 5106 c-147 -48 -201 -223 -109 -356 73 -106 253 -116 341 -18
73 80 86 208 28 290 -55 79 -167 115 -260 84z"/>
<path d="M13848 5110 c-104 -31 -178 -144 -164 -248 13 -92 80 -166 177 -192
116 -32 235 44 269 171 43 160 -122 317 -282 269z"/>
<path d="M10536 4220 c-53 -16 -105 -61 -131 -113 -45 -91 -29 -185 44 -258
72 -72 164 -89 257 -45 152 71 179 261 53 369 -60 52 -146 70 -223 47z"/>
<path d="M4850 17604 c-70 -19 -130 -58 -260 -168 -58 -49 -107 -91 -109 -92
-4 -3 388 -464 395 -464 18 0 246 211 276 256 65 95 73 206 22 307 -70 137
-191 198 -324 161z"/>
<path d="M3263 15740 c-206 -37 -385 -203 -438 -405 -19 -76 -19 -201 1 -279
57 -221 253 -388 484 -411 261 -26 525 161 585 416 79 338 -158 662 -500 683
-44 3 -103 1 -132 -4z"/>
<path d="M3705 5939 c-126 -93 -236 -176 -243 -183 -12 -11 2 -35 86 -149 139
-187 211 -233 350 -225 85 5 151 36 218 103 85 85 98 201 35 325 -29 60 -199
301 -210 299 -3 0 -109 -77 -236 -170z"/>
<path d="M5198 4217 c-136 -67 -247 -125 -245 -129 3 -10 341 -286 352 -288 5
-1 39 111 76 249 37 138 70 260 74 271 3 11 3 20 -2 19 -4 0 -119 -56 -255
-122z"/>
<path d="M13035 2943 c-11 -2 -93 -27 -183 -55 -110 -35 -161 -56 -158 -64 3
-7 76 -232 162 -501 87 -268 159 -490 161 -493 2 -2 82 22 178 53 194 65 261
102 340 188 92 101 135 211 135 344 0 246 -160 459 -391 520 -50 14 -197 18
-244 8z"/>
<path d="M8305 2842 c-173 -59 -288 -173 -352 -349 -106 -293 78 -638 383
-717 197 -51 408 8 547 152 214 222 211 561 -7 777 -117 116 -237 165 -402
165 -70 0 -106 -6 -169 -28z"/>
<path d="M11200 2621 c-97 -31 -163 -72 -235 -145 -113 -114 -165 -237 -165
-393 0 -352 324 -619 665 -548 259 54 455 289 455 545 0 249 -179 483 -415
545 -81 21 -235 19 -305 -4z"/>
</g>
</svg>
