<?xml version="1.0" standalone="no"?>
<!DOCTYPE svg PUBLIC "-//W3C//DTD SVG 20010904//EN"
 "http://www.w3.org/TR/2001/REC-SVG-20010904/DTD/svg10.dtd">
<svg version="1.0" xmlns="http://www.w3.org/2000/svg" viewBox="0 0 980.000000 980.000000">

<g transform="translate(0.000000,980.000000) scale(0.100000,-0.100000)"
fill="#000000">
<path d="M0 4900 l0 -4900 4900 0 4900 0 0 4900 0 4900 -4900 0 -4900 0 0
-4900z m3380 2741 c48 -5 9 -8 -150 -13 -176 -5 -236 -11 -330 -31 -438 -96
-702 -346 -776 -734 -22 -118 -14 -365 16 -508 218 -1021 1421 -2376 2898
-3264 743 -446 1478 -736 2112 -832 176 -27 527 -33 650 -11 190 34 346 88
460 160 241 152 369 353 415 652 l14 95 -5 -95 c-14 -251 -86 -423 -243 -581
-205 -205 -516 -309 -927 -309 -954 0 -2266 559 -3406 1452 -47 37 -89 68 -92
68 -3 0 -6 -36 -6 -80 l0 -80 -310 0 -310 0 0 356 0 357 -168 171 c-444 452
-769 893 -977 1321 -512 1058 -222 1811 735 1908 61 6 333 5 400 -2z m135
-161 c413 -46 936 -202 1390 -415 55 -26 132 -62 171 -80 103 -48 429 -226
574 -313 207 -124 582 -374 625 -415 16 -15 -7 -1 -177 110 -233 152 -426 263
-683 393 -206 104 -296 145 -513 235 -91 37 -364 129 -473 159 -455 124 -855
140 -1127 47 -110 -38 -183 -83 -262 -161 -197 -195 -233 -503 -104 -888 122
-363 375 -771 746 -1203 125 -145 521 -536 688 -680 117 -101 333 -276 426
-346 222 -166 513 -363 726 -491 622 -372 1229 -616 1775 -714 109 -19 162
-22 363 -22 224 0 240 1 335 27 173 47 303 122 388 224 79 95 135 251 138 383
1 54 1 54 11 20 17 -60 4 -313 -22 -400 -67 -231 -233 -407 -472 -500 -236
-92 -605 -104 -985 -34 -1133 208 -2575 1048 -3596 2094 -667 682 -1095 1376
-1193 1933 -21 119 -21 320 -1 414 60 277 241 472 525 566 59 20 150 42 202
50 112 18 397 21 525 7z m1175 -1527 c207 -58 345 -146 458 -291 276 -354 258
-916 -38 -1238 -99 -109 -211 -181 -348 -225 l-69 -22 -89 74 c-192 159 -504
444 -504 460 0 5 92 9 205 9 163 0 213 3 243 16 123 51 202 240 172 411 -21
124 -69 200 -155 246 -38 21 -53 22 -295 22 l-255 0 -5 -308 -5 -308 -116 128
c-191 211 -339 395 -457 570 l-42 62 0 211 0 211 613 -3 c586 -4 615 -5 687
-25z m2615 -253 l0 -275 -297 -3 -298 -2 0 -945 0 -945 -310 0 -310 0 -2 943
-3 942 -302 3 -303 2 0 273 c0 151 3 277 7 280 3 4 414 6 912 5 l906 -3 0
-275z"/>
</g>
</svg>
