<?xml version="1.0" encoding="UTF-8"?>
<!DOCTYPE svg PUBLIC "-//W3C//DTD SVG 1.1//EN" "http://www.w3.org/Graphics/SVG/1.1/DTD/svg11.dtd">
<!-- Creator: CorelDRAW X7 -->
<svg xmlns="http://www.w3.org/2000/svg" xml:space="preserve" width="13.5973in" height="9.15232in" version="1.1" style="shape-rendering:geometricPrecision; text-rendering:geometricPrecision; image-rendering:optimizeQuality; fill-rule:evenodd; clip-rule:evenodd"
viewBox="0 0 20493 13794"
 xmlns:xlink="http://www.w3.org/1999/xlink">
 <defs>
  <style type="text/css">
   <![CDATA[
    .fil2 {fill:black}
    .fil1 {fill:#030303}
    .fil0 {fill:white}
    .fil3 {fill:#030303;fill-rule:nonzero}
   ]]>
  </style>
 </defs>
 <g id="Layer_x0020_1">
  <metadata id="CorelCorpID_0Corel-Layer"/>
  <path class="fil0" d="M6020 11034l270 -351c128,53 219,150 396,217 159,59 340,97 531,102 266,-4 418,-23 656,-85 455,-80 678,-339 895,-470 293,385 290,280 1232,165 480,-59 943,-113 1417,-178 895,-123 1918,-293 2839,-368l458 -52 589 -74c1852,-604 4730,-5 5190,-465 -2774,-743 2862,-4162 -3708,-3316 -527,68 -1087,163 -1610,205l-1054 151c-802,49 -1773,216 -2580,333 -449,65 -891,105 -1340,160 -403,50 -903,147 -1275,181 -170,9 -333,51 -493,26 -75,53 -39,30 -157,50 -146,24 -363,24 -484,79 -444,201 -67,1652 -250,2030 -84,-158 -35,-1177 -36,-1453 -3,-659 -404,-468 -917,-452 209,-864 273,-1043 -59,-1895 -225,-433 -478,-915 -784,-1151 -666,286 -1492,1078 -1394,2136 -444,-153 -512,-279 -1235,-441 -509,-114 -1048,-161 -1588,-98 -123,417 99,1201 275,1609 69,161 178,301 229,426 -2055,98 -2140,1613 -1591,2221 -102,244 -598,587 -393,928 130,215 602,437 956,506 675,131 1487,-38 1935,-568 79,-94 87,-132 161,-204 91,49 138,116 247,184 318,199 677,283 1078,266 7,8 15,10 17,25 3,14 13,19 16,24l67 123c176,0 193,-42 196,-215 306,-70 503,-180 522,-184 108,-25 110,17 156,76 -94,165 -447,260 -462,483 238,-4 428,-290 506,-360 218,-193 152,120 576,-326z"/>
  <path class="fil1" d="M8921 3679c28,110 68,171 99,277l80 276c363,123 870,147 1081,400 861,-185 1830,25 2456,389 544,316 992,718 1307,1267 20,34 49,93 68,124 56,88 15,72 109,103l1054 -151c-6,-154 -288,-614 -380,-755 -115,-178 -414,-509 -415,-725 155,0 124,37 277,-21 14,-128 11,-426 -49,-593 -89,-8 -246,-7 -333,15 -159,41 -84,122 -200,56 -91,-167 90,-140 220,-170l336 -129c167,-75 82,-121 273,-190 154,-56 235,-67 217,-261 -239,-29 -400,132 -621,152 -120,10 -242,2 -359,36 -164,47 -94,104 -302,88 -249,-260 -121,-528 36,-748 119,-168 488,-452 405,-674 -193,-75 -300,189 -409,374 -80,134 -102,124 -263,165 -297,75 31,79 -361,265 -109,51 -205,181 -454,18 -86,-56 -195,-246 -273,-356 -89,-126 25,-75 -139,-93 -85,111 -27,94 -36,255 -233,2 -352,-119 -461,-256 -211,-12 -146,38 -302,-65 -109,-72 -152,-86 -243,22 -59,171 44,244 112,376 -28,53 -103,147 -164,220 -89,50 -1520,-69 -2366,309z"/>
  <path class="fil1" d="M14204 6869l-8 771 1184 -146 -1131 1435c-152,184 -96,440 -96,742 270,40 2069,-250 2493,-302l13 -769 -1229 154c54,-114 252,-339 345,-453l737 -921c0,-563 -135,-677 -414,-736 -398,-84 -793,85 -1894,225z"/>
  <path class="fil0" d="M10181 4632c34,172 -73,188 -173,277 -101,239 -364,335 -541,559 -63,102 -198,626 -249,783l-186 580c-7,19 -24,63 -36,85 -54,92 11,19 -32,32l-38 241c372,-34 872,-131 1275,-181 449,-55 891,-95 1340,-160 807,-117 1778,-284 2580,-333 -94,-31 -53,-15 -109,-103 -19,-31 -48,-90 -68,-124 -315,-549 -763,-951 -1307,-1267 -626,-364 -1595,-574 -2456,-389z"/>
  <path class="fil2" d="M7873 10917c84,31 26,1 90,62 1,1 65,78 77,92 1197,1408 3516,1731 5154,448 261,-205 1003,-988 1062,-1453 -921,75 -1944,245 -2839,368 -474,65 -937,119 -1417,178 -942,115 -939,220 -1232,-165 -217,131 -440,390 -895,470z"/>
  <path class="fil1" d="M5329 10679c75,74 212,176 290,211 81,-64 423,-495 465,-586 -79,-37 -177,-109 -260,-168 18,-106 632,-1310 -413,-1906 -741,-424 -1572,-22 -1966,402 -449,484 -673,1382 -128,1957 396,418 965,530 1545,321 192,-70 332,-185 467,-231z"/>
  <path class="fil1" d="M11691 7195l3 2806 2307 -289 0 -769 -1432 179 0 -279 1277 -162 4 -728 -1279 160 0 -224c96,-58 217,-58 336,-72l1047 -138c42,-101 31,-242 30,-353 -1,-141 0,-281 -1,-422l-2292 291z"/>
  <polygon class="fil1" points="9151,7523 9151,10337 11457,10041 11458,9269 10026,9451 10026,9174 11305,9009 11308,8295 10038,8442 10026,8188 11433,8007 11443,7239 "/>
  <path class="fil2" d="M14714 10014l79 16c-80,50 -341,640 -575,954 -440,590 -964,1079 -1646,1407 -1506,724 -3410,487 -4618,-604l-737 -785c-191,-5 -372,-43 -531,-102 -177,-67 -268,-164 -396,-217l-270 351c132,-5 286,7 386,45 24,192 -76,177 -34,504 29,219 -75,310 -59,553 171,-18 185,-59 231,-204 60,-189 88,-111 155,-280 389,221 30,410 346,417 111,-193 -3,-180 -41,-333 288,112 366,421 851,746 227,152 809,410 1077,511 -4,638 138,125 779,220 939,138 2384,-139 3174,-577 979,-544 2163,-1569 2418,-2696l-589 74z"/>
  <path class="fil1" d="M7968 7678c-139,906 262,1954 -368,2095 -520,116 -471,-350 -470,-757 1,-404 3,-809 1,-1214l-899 99c-38,327 -26,1741 47,2014 295,1104 2182,868 2517,-307 96,-336 88,-1635 60,-2039l-888 109z"/>
  <path class="fil1" d="M1978 10408c-27,227 -376,198 -566,167 -270,-43 -332,-136 -532,-213 -129,133 -389,482 -486,643 434,463 1677,554 2274,-134 291,-336 474,-1193 -598,-1357 -295,-46 -539,-12 -640,-166 153,-313 755,-36 941,53 79,-60 412,-588 451,-683 -368,-386 -1660,-457 -2134,273 -242,371 -219,861 113,1099 310,223 977,149 1177,318z"/>
  <path class="fil0" d="M14256 10066c-59,465 -801,1248 -1062,1453 -1638,1283 -3957,960 -5154,-448 -12,-14 -76,-91 -77,-92 -64,-61 -6,-31 -90,-62 -238,62 -390,81 -656,85l737 785c1208,1091 3112,1328 4618,604 682,-328 1206,-817 1646,-1407 234,-314 495,-904 575,-954l-79 -16 -458 52z"/>
  <path class="fil1" d="M4399 6597l43 41c170,148 522,327 799,676 -66,-330 -48,-686 70,-993 110,-286 316,-615 512,-714 -28,158 -164,394 -229,574 -126,349 -180,672 -202,1045 -3,51 -10,157 -6,203 14,168 0,97 73,188 255,320 155,334 395,449 2,-811 496,-312 625,-709l83 -528c21,-648 -246,-1349 -698,-1767 -214,-197 -187,-211 -491,-8 -137,91 -359,273 -447,385 -306,390 -484,595 -527,1158z"/>
  <path class="fil1" d="M3101 8433c82,-54 95,-85 172,-139 -36,-59 -72,-104 -123,-157 -63,-66 -87,-72 -149,-148 -223,-276 -562,-775 -558,-1149 102,75 163,194 237,308 150,227 604,845 851,930 281,-151 334,-275 855,-363 493,-83 654,8 1062,111 -138,-328 -727,-757 -1037,-949 -588,-364 -1278,-493 -2008,-469 -301,10 -614,-139 -301,977 250,894 310,717 654,851 149,58 214,130 345,197z"/>
  <path class="fil1" d="M6530 5574c332,852 268,1031 59,1895 513,-16 914,-207 917,452 1,276 -48,1295 36,1453 183,-378 -194,-1829 250,-2030 121,-55 338,-55 484,-79 118,-20 82,3 157,-50l-128 0c28,-111 10,-147 -43,-277l-140 -294c-109,-174 -82,-51 -220,-108 28,-120 79,-178 130,-271 -16,-30 -59,-93 -73,-119 -31,-59 -29,-85 -59,-142l-165 133c-48,-218 -2,-71 28,-245 20,-122 -23,-129 -26,-287 -215,23 -229,86 -200,-268 25,-309 -42,-98 -65,-412l-69 -39c-112,-72 -552,-71 -677,-5l364 -19c-80,170 -416,382 -560,712z"/>
  <path class="fil0" d="M8433 7215c160,25 323,-17 493,-26l38 -241c23,-352 312,-1478 242,-1707 -57,-58 -25,-34 -102,-74 -29,-15 -58,-25 -96,-38 -367,-131 -1295,-300 -1605,-243l69 39c23,314 90,103 65,412 -29,354 -15,291 200,268 3,158 46,165 26,287 -30,174 -76,27 -28,245l165 -133c30,57 28,83 59,142 14,26 57,89 73,119 -51,93 -102,151 -130,271 138,57 111,-66 220,108l140 294c53,130 71,166 43,277l128 0z"/>
  <path class="fil1" d="M6892 3637l529 -44c73,-210 -101,-968 -89,-1272 20,-529 49,-387 151,-557 371,-619 1236,-1185 1400,-1385 108,-131 -10,-449 -225,-365 -197,77 -881,766 -1090,1008 -376,435 -273,158 -417,311l-210 358c-178,321 25,226 -33,619 -56,383 -67,953 -16,1327z"/>
  <path class="fil1" d="M10008 4909c100,-89 207,-105 173,-277 -211,-253 -718,-277 -1081,-400l-80 -276c-31,-106 -71,-167 -99,-277 -395,-248 -2883,127 -3361,320 1022,49 2706,-343 3456,209 -568,-56 -940,-121 -1540,-75 -270,21 -1257,141 -1381,267 61,82 32,81 176,70l752 -116c363,-43 783,-34 1149,-15 440,23 1051,112 1459,268 258,98 256,56 270,323l107 -21z"/>
  <path class="fil1" d="M6726 4881c125,-66 565,-67 677,5 310,-57 1238,112 1605,243 38,13 67,23 96,38 77,40 45,16 102,74 80,262 -391,1984 -210,1675 12,-22 29,-66 36,-85l186 -580c51,-157 186,-681 249,-783 51,-223 245,-290 188,-555 -610,-374 -2617,-416 -3361,-165l49 141 383 -8z"/>
  <path class="fil0" d="M4616 10167c-109,-91 -167,-151 -295,-211 70,-140 362,-505 470,-599 121,73 188,152 324,219 38,-742 -638,-887 -1036,-443 -363,405 -161,1216 537,1034z"/>
  <path class="fil1" d="M6793 13325c77,-38 456,-80 253,-462 -263,-37 -212,71 -308,221 -103,163 -177,22 -282,283 -59,146 -46,309 126,326 249,24 212,-166 211,-368z"/>
  <path class="fil1" d="M10001 13389c-268,129 -511,533 22,364 147,-46 295,-80 293,-228 -2,-162 -167,-208 -315,-136z"/>
  <polygon class="fil1" points="16963,6560 16963,9374 19270,9078 19271,8306 17839,8488 17838,8211 19117,8046 19121,7332 17850,7478 17838,7225 19246,7044 19256,6276 "/>
  <path class="fil3" d="M17520 10278l47 2980 -776 12 -47 -2979 776 -13zm1868 -29l10 595 -456 7 38 2384 -776 13 -38 -2385 -459 8 -10 -595 1691 -27z"/>
 </g>
</svg>
