<?xml version="1.0" encoding="UTF-8"?><!DOCTYPE svg PUBLIC "-//W3C//DTD SVG 1.1//EN" "http://www.w3.org/Graphics/SVG/1.1/DTD/svg11.dtd"><!-- Creator: CorelDRAW X7 --><svg xmlns="http://www.w3.org/2000/svg" xmlns:xlink="http://www.w3.org/1999/xlink" xml:space="preserve" width="6.16952in" height="4.1527in" version="1.1" style="shape-rendering:geometricPrecision; text-rendering:geometricPrecision; image-rendering:optimizeQuality; fill-rule:evenodd; clip-rule:evenodd" viewBox="0 0 7296 4911">
 <defs>
  <style type="text/css">
   <![CDATA[
    .fil15 {fill:#FFCC00}
    .fil0 {fill:white}
    .fil7 {fill:url(#id0)}
    .fil10 {fill:url(#id1)}
    .fil16 {fill:url(#id2)}
    .fil1 {fill:url(#id3)}
    .fil11 {fill:url(#id4)}
    .fil17 {fill:url(#id5)}
    .fil13 {fill:url(#id6)}
    .fil14 {fill:url(#id7)}
    .fil4 {fill:url(#id8)}
    .fil2 {fill:url(#id9)}
    .fil8 {fill:url(#id10)}
    .fil18 {fill:url(#id11)}
    .fil9 {fill:url(#id12)}
    .fil19 {fill:url(#id13)}
    .fil12 {fill:url(#id14)}
    .fil6 {fill:url(#id15)}
    .fil5 {fill:url(#id16)}
    .fil3 {fill:url(#id17)}
   ]]>
  </style>
  <linearGradient id="id0" gradientUnits="userSpaceOnUse" x1="2143.3" y1="4140.03" x2="5448.08" y2="4140.03">
   <stop offset="0" style="stop-opacity:1; stop-color:#FFCC00"/>
   <stop offset="1" style="stop-opacity:1; stop-color:#D4470F"/>
  </linearGradient>
  <linearGradient id="id1" gradientUnits="userSpaceOnUse" xlink:href="#id0" x1="1566.22" y1="2309.47" x2="2336.54" y2="2309.47">
  </linearGradient>
  <linearGradient id="id2" gradientUnits="userSpaceOnUse" xlink:href="#id0" x1="2286.99" y1="4725.99" x2="2529.37" y2="4725.99">
  </linearGradient>
  <linearGradient id="id3" gradientUnits="userSpaceOnUse" xlink:href="#id0" x1="3175.98" y1="1592.62" x2="5402.2" y2="1592.62">
  </linearGradient>
  <linearGradient id="id4" gradientUnits="userSpaceOnUse" xlink:href="#id0" x1="702.043" y1="2641.23" x2="1939.41" y2="2641.23">
  </linearGradient>
  <linearGradient id="id5" gradientUnits="userSpaceOnUse" xlink:href="#id0" x1="3455.35" y1="4832.75" x2="3672.67" y2="4832.75">
  </linearGradient>
  <linearGradient id="id6" gradientUnits="userSpaceOnUse" x1="2809.92" y1="1232.92" x2="2806.13" y2="59.3404">
   <stop offset="0" style="stop-opacity:1; stop-color:#99FF00"/>
   <stop offset="1" style="stop-opacity:1; stop-color:#46C700"/>
  </linearGradient>
  <linearGradient id="id7" gradientUnits="userSpaceOnUse" xlink:href="#id6" x1="2800.28" y1="1732.38" x2="2800.05" y2="1302.34">
  </linearGradient>
  <linearGradient id="id8" gradientUnits="userSpaceOnUse" xlink:href="#id6" x1="1615.3" y1="3870.16" x2="1613.62" y2="2914.11">
  </linearGradient>
  <linearGradient id="id9" gradientUnits="userSpaceOnUse" xlink:href="#id6" x1="5482.3" y1="3392.4" x2="5480.11" y2="2407.22">
  </linearGradient>
  <linearGradient id="id10" gradientUnits="userSpaceOnUse" xlink:href="#id6" x1="2684.66" y1="3731.75" x2="2682.58" y2="2744.6">
  </linearGradient>
  <linearGradient id="id11" gradientUnits="userSpaceOnUse" xlink:href="#id6" x1="6449.48" y1="3284.41" x2="6447.01" y2="2284.76">
  </linearGradient>
  <linearGradient id="id12" gradientUnits="userSpaceOnUse" xlink:href="#id6" x1="584.405" y1="3997.85" x2="582.366" y2="3049.92">
  </linearGradient>
  <linearGradient id="id13" gradientUnits="userSpaceOnUse" xlink:href="#id6" x1="6432.64" y1="4672.8" x2="6430.6" y2="3697.89">
  </linearGradient>
  <linearGradient id="id14" gradientUnits="userSpaceOnUse" xlink:href="#id6" x1="2665.39" y1="3259.86" x2="2658.98" y2="1794.23">
  </linearGradient>
  <linearGradient id="id15" gradientUnits="userSpaceOnUse" xlink:href="#id6" x1="3668.24" y1="3627.3" x2="3665.78" y2="2627.64">
  </linearGradient>
  <linearGradient id="id16" gradientUnits="userSpaceOnUse" xlink:href="#id6" x1="4573.03" y1="3507.69" x2="4570.58" y2="2508.4">
  </linearGradient>
  <linearGradient id="id17" gradientUnits="userSpaceOnUse" xlink:href="#id0" x1="3989.66" y1="3956.36" x2="4036.29" y2="4679.18">
  </linearGradient>
 </defs>
 <g id="Layer_x0020_1">
  <metadata id="CorelCorpID_0Corel-Layer"/>
  <path class="fil0" d="M2143 3928l96 -125c46,19 78,54 141,77 57,22 121,35 189,37 95,-2 149,-8 234,-31 162,-28 241,-120 318,-167 105,137 104,100 439,59 171,-21 336,-40 504,-63 319,-44 683,-105 1011,-131l163 -19 210 -26c659,-215 1684,-2 1848,-166 -988,-264 1018,-1482 -1321,-1180 -187,24 -386,58 -573,73l-375 54c-285,17 -631,76 -918,118 -160,23 -318,37 -477,57 -144,18 -322,52 -454,64 -61,4 -119,18 -176,10 -26,18 -14,10 -56,17 -52,9 -129,9 -172,28 -158,72 -24,589 -89,723 -30,-56 -13,-419 -13,-517 -1,-235 -144,-167 -326,-161 74,-307 97,-371 -21,-675 -80,-154 -170,-325 -280,-409 -236,102 -531,383 -496,760 -158,-54 -182,-99 -439,-157 -181,-40 -373,-57 -566,-35 -43,148 36,428 98,573 25,57 63,107 82,152 -732,35 -762,574 -567,790 -36,87 -213,209 -139,331 46,76 214,155 340,180 240,46 529,-14 689,-202 28,-34 31,-47 57,-73 32,18 49,41 88,65 113,71 241,101 384,95 2,3 5,4 6,9 1,5 4,7 6,9l23 43c63,1 69,-14 70,-76 109,-25 179,-64 186,-66 38,-8 39,7 55,27 -33,59 -159,93 -164,172 85,-1 152,-103 180,-128 78,-69 54,43 205,-116z"/>
  <path class="fil1" d="M3176 1310c10,39 24,61 35,98l28 99c130,44 311,52 386,142 306,-66 651,9 874,139 194,112 353,255 465,450 7,13 17,34 24,45 20,31 6,25 39,37l375 -54c-2,-55 -102,-219 -135,-269 -41,-64 -147,-181 -148,-258 56,0 45,13 99,-8 5,-45 4,-152 -17,-211 -32,-3 -88,-2 -119,6 -57,14 -30,43 -71,19 -33,-59 32,-49 78,-60l120 -46c59,-27 29,-43 97,-68 55,-20 84,-24 77,-92 -85,-11 -142,46 -221,53 -43,4 -86,1 -128,13 -58,17 -33,37 -107,32 -89,-93 -43,-188 12,-267 43,-59 174,-161 145,-240 -69,-26 -107,68 -146,133 -28,48 -36,45 -93,59 -106,27 11,29 -129,95 -39,18 -73,64 -162,6 -30,-20 -69,-87 -97,-127 -31,-44 9,-26 -49,-33 -31,40 -10,34 -13,91 -83,1 -126,-42 -164,-91 -75,-5 -52,13 -108,-23 -39,-26 -54,-31 -86,8 -21,61 15,86 40,133 -10,19 -37,53 -59,79 -31,17 -541,-25 -842,110z"/>
  <path class="fil2" d="M5057 2445l-3 275 421 -52 -402 511c-55,65 -35,157 -34,264 96,14 736,-89 887,-107l5 -274 -438 55c19,-41 90,-121 123,-162l262 -328c0,-200 -48,-241 -147,-262 -142,-29 -282,30 -674,80z"/>
  <path class="fil3" d="M2803 3886c30,11 9,1 32,22 0,1 23,28 27,33 426,502 1252,617 1835,160 93,-73 357,-352 378,-517 -328,26 -692,87 -1011,131 -168,23 -333,42 -504,63 -335,41 -334,78 -439,-59 -77,47 -156,139 -318,167z"/>
  <path class="fil4" d="M1897 3802c27,26 76,63 104,75 28,-23 150,-176 165,-209 -28,-13 -63,-39 -93,-59 7,-38 225,-467 -147,-679 -263,-151 -559,-8 -700,143 -159,172 -239,492 -45,697 141,148 344,188 550,114 68,-25 118,-66 166,-82z"/>
  <path class="fil5" d="M4162 2561l1 999 821 -102 1 -274 -510 63 0 -99 454 -58 2 -259 -456 57 0 -79c35,-21 78,-21 120,-26l373 -49c15,-36 11,-86 10,-126 0,-50 0,-100 0,-150l-816 103z"/>
  <polygon class="fil6" points="3258,2678 3258,3680 4079,3575 4079,3300 3569,3365 3569,3266 4025,3207 4026,2953 3573,3005 3569,2915 4070,2850 4074,2577 "/>
  <path class="fil7" d="M5238 3565l28 6c-28,18 -121,228 -204,339 -157,211 -344,384 -586,501 -536,258 -1214,174 -1644,-215l-263 -279c-68,-2 -132,-15 -189,-37 -63,-23 -95,-58 -141,-77l-96 125c47,-2 102,2 137,16 9,68 -27,63 -11,180 10,77 -27,110 -22,196 61,-6 66,-21 83,-72 21,-67 31,-40 55,-100 138,79 11,146 123,149 40,-69 -1,-64 -14,-119 102,40 130,150 302,266 81,54 288,146 384,182 -2,227 49,44 277,78 334,49 849,-49 1130,-205 349,-194 770,-559 861,-960l-210 26z"/>
  <path class="fil8" d="M2837 2733c-50,323 93,696 -131,746 -186,42 -168,-125 -168,-269 1,-144 1,-288 1,-432l-320 35c-14,116 -10,620 16,717 105,393 777,309 897,-109 34,-120 31,-583 21,-726l-316 38z"/>
  <path class="fil9" d="M704 3705c-9,81 -134,71 -201,60 -97,-16 -119,-49 -190,-76 -46,47 -138,172 -173,229 155,165 597,197 810,-48 104,-120 169,-425 -213,-483 -105,-16 -192,-4 -228,-59 55,-112 269,-13 335,19 28,-21 147,-210 161,-243 -131,-138 -591,-163 -760,97 -86,132 -78,306 40,391 110,79 348,53 419,113z"/>
  <path class="fil0" d="M5075 3584c-21,165 -285,444 -378,517 -583,457 -1409,342 -1835,-160 -4,-5 -27,-32 -27,-33 -23,-21 -2,-11 -32,-22 -85,23 -139,29 -234,31l263 279c430,389 1108,473 1644,215 242,-117 429,-290 586,-501 83,-111 176,-321 204,-339l-28 -6 -163 19z"/>
  <path class="fil10" d="M1566 2348l16 15c60,53 185,117 284,241 -24,-118 -17,-244 25,-354 39,-101 112,-219 182,-254 -10,56 -58,140 -82,204 -45,125 -64,240 -72,373 -1,18 -3,55 -1,72 5,59 0,34 25,67 91,114 56,119 141,160 1,-289 177,-111 223,-253l29 -188c8,-230 -88,-480 -249,-629 -76,-70 -66,-75 -174,-3 -49,33 -128,97 -159,137 -109,139 -173,212 -188,412z"/>
  <path class="fil11" d="M1104 3002c29,-19 34,-30 61,-49 -13,-21 -25,-37 -44,-56 -22,-24 -31,-26 -52,-53 -80,-98 -201,-276 -199,-409 36,27 58,69 84,110 53,81 215,300 303,331 100,-54 119,-98 304,-129 176,-30 233,2 378,39 -49,-117 -258,-269 -369,-338 -209,-129 -455,-175 -714,-167 -108,4 -219,-49 -108,348 89,318 111,255 233,303 53,21 76,46 123,70z"/>
  <path class="fil12" d="M2325 1984c118,304 95,368 21,675 182,-6 325,-74 326,161 0,98 -17,461 13,517 65,-134 -69,-651 89,-723 43,-19 120,-19 172,-28 42,-7 30,1 56,-17l-45 0c10,-40 3,-53 -16,-99l-50 -105c-38,-62 -29,-18 -78,-38 10,-43 28,-64 47,-97 -6,-10 -22,-33 -27,-42 -10,-21 -10,-30 -21,-51l-58 48c-17,-78 -1,-26 10,-88 7,-43 -9,-45 -9,-102 -77,8 -82,31 -72,-95 9,-110 -15,-35 -23,-147l-25 -14c-39,-25 -196,-25 -240,-1l129 -7c-28,60 -148,136 -199,253z"/>
  <path class="fil13" d="M2454 1295l188 -16c26,-74 -36,-345 -32,-453 8,-188 18,-137 54,-198 132,-220 440,-422 498,-493 39,-47 -3,-160 -80,-130 -70,27 -313,273 -388,359 -134,155 -97,56 -148,111l-75 127c-63,114 9,80 -12,220 -20,137 -24,340 -5,473z"/>
  <path class="fil14" d="M3563 1748c36,-32 74,-38 62,-99 -75,-90 -256,-98 -386,-142l-28 -99c-11,-37 -25,-59 -35,-98 -141,-88 -1026,45 -1197,114 364,17 964,-123 1231,74 -203,-20 -335,-43 -549,-27 -96,8 -447,51 -491,95 22,30 11,29 63,25l267 -41c130,-15 279,-12 409,-5 157,8 374,39 520,95 92,35 91,20 96,115l38 -7z"/>
  <path class="fil15" d="M2395 1738c44,-24 201,-24 240,1 111,-20 441,40 572,87 13,5 24,8 34,13 28,15 16,6 36,27 29,93 -139,706 -74,596 4,-8 10,-23 12,-30l67 -207c18,-56 66,-242 88,-278 19,-80 88,-104 67,-198 -217,-133 -932,-148 -1196,-59l17 51 137 -3z"/>
  <path class="fil0" d="M1643 3619c-38,-32 -59,-53 -105,-75 25,-50 129,-179 168,-213 43,26 67,54 115,78 13,-264 -227,-316 -369,-158 -129,145 -57,433 191,368z"/>
  <path class="fil16" d="M2418 4744c28,-14 163,-29 90,-165 -93,-13 -75,25 -109,79 -37,58 -63,8 -101,101 -21,52 -16,110 45,116 89,8 76,-59 75,-131z"/>
  <path class="fil17" d="M3560 4766c-95,46 -182,190 8,130 53,-16 105,-28 105,-81 -1,-58 -60,-74 -113,-49z"/>
  <polygon class="fil18" points="6039,2335 6039,3337 6860,3232 6860,2957 6351,3022 6351,2923 6806,2864 6807,2610 6355,2662 6350,2572 6852,2508 6855,2234 "/>
  <path class="fil19" d="M6237 3659l17 1061 -276 4 -17 -1061 276 -4zm665 -10l4 211 -163 3 14 849 -276 4 -14 -849 -163 3 -4 -212 602 -9z"/>
 </g>
</svg>